<svg id="Layer_1" data-name="Layer 1" xmlns="http://www.w3.org/2000/svg" viewBox="0 0 69.2 8.3"><title>Trawla_Logo1</title><path d="M0,.08H6.8v.5H3.7v7.7H3.1V.58H0V.08" transform="translate(0 -0.08)"/><path d="M17.4,8.28,16,6.08c-.1-.2-.3-.4-.4-.6a2.18,2.18,0,0,0-.4-.5,1.73,1.73,0,0,0-1.3-.5H12.6v3.9H12V.18h2.1a3.68,3.68,0,0,1,2,.5,1.86,1.86,0,0,1,.7,1.6,1.9,1.9,0,0,1-.5,1.3,2.59,2.59,0,0,1-1.1.7,4.51,4.51,0,0,1,.7.7,1.76,1.76,0,0,0,.4.5c.1.2.2.3.3.5l1.5,2.4h-.7ZM15.5,1A2.41,2.41,0,0,0,14,.58H12.6v3.2H14a2.54,2.54,0,0,0,1.6-.4,1.43,1.43,0,0,0,.6-1.2A1.85,1.85,0,0,0,15.5,1Z" transform="translate(0 -0.08)"/><path d="M30.2,8.28l-1.3-2.8h-4l-1.3,2.8h-.7L26.7.08H27l3.8,8.2Zm-3.3-7.2-1.7,3.8h3.5Z" transform="translate(0 -0.08)"/><path d="M43.4,8.38h-.2l-2.7-6.9-2.7,6.9h-.2L34.3.08h.6l2.7,6.8L40.3.08h.3l2.7,6.8L46,.08h.6Z" transform="translate(0 -0.08)"/><path d="M51.8,8.28V.08h.6v7.7h4v.5Z" transform="translate(0 -0.08)"/><path d="M68.6,8.28l-1.3-2.8h-4L62,8.28h-.7L65.1.08h.3l3.8,8.2Zm-3.3-7.2-1.8,3.8H67Z" transform="translate(0 -0.08)"/></svg>