<?xml version="1.0" encoding="utf-8"?>
<!-- Generator: Adobe Illustrator 22.0.0, SVG Export Plug-In . SVG Version: 6.00 Build 0)  -->
<svg version="1.1" id="Layer_1" xmlns="http://www.w3.org/2000/svg" xmlns:xlink="http://www.w3.org/1999/xlink" x="0px" y="0px"
	 viewBox="0 0 605 115" style="enable-background:new 0 0 605 115;" xml:space="preserve">
<style type="text/css">
	.st0{fill:none;stroke:#000000;stroke-width:0.5386;stroke-miterlimit:2.1173;}
	.st1{fill:none;stroke:#000000;stroke-width:0.4252;stroke-miterlimit:1.7573;}
</style>
<g>
	<path d="M107.5,108.1h-0.6v2.1h0.5C107.4,109.6,107.5,108.9,107.5,108.1z"/>
	<path d="M203.5,108.1L163.3,2.5h-3.5l-6,16c0.8,2.3,1.3,4,1.3,4l0,0L171.2,65h-28.9l-0.5,2.1H172l15.5,41h-16.4v2.1h45.5v-2.1
		H203.5z"/>
</g>
<polygon points="106.4,7.2 106.5,7.2 106.5,5.1 90.2,5.1 62.9,84.5 62.6,84.5 35.3,5.1 2.1,5.1 2.1,7.2 18.5,7.2 18.5,108.1 
	2.1,108.1 2.1,110.2 37.1,110.2 37.1,108.1 20.7,108.1 20.7,9.1 21,9.1 56.1,110.4 91.4,8.1 91.7,8.1 91.7,108.1 75.3,108.1 
	75.3,110.2 122.8,110.2 122.8,108.1 106.4,108.1 "/>
<g>
	<path d="M222.7,49.8h4v-27h-4v-0.6h8.1l6.6,21.2h0.1l6.6-21.2h7.9v0.6h-4v27h4v0.6h-11.5v-0.6h4V23.1h-0.1l-8.6,27.3l-8.5-27h-0.1
		v26.4h4v0.6h-8.5V49.8z"/>
	<path d="M255.4,49.8h3.2l9.7-28.2h0.9l9.7,28.2h3.2v0.6h-11v-0.6h4l-3.8-11H263l-3.8,11h4v0.6h-7.7v-0.6H255.4z M267.1,26.8
		l-3.9,11.5h7.9L267.1,26.8z"/>
	<path d="M285.6,49.8h4v-27h-4v-0.6h6.8c0.3,0,0.6,0,0.9,0s0.6,0,0.9-0.1c0.3,0,0.6,0,0.9,0s0.6,0,0.9,0c1.4,0,2.7,0.1,3.7,0.3
		c1.1,0.2,2.1,0.7,3,1.5c0.8,0.7,1.4,1.5,1.8,2.4c0.3,0.9,0.5,1.7,0.5,2.5c0,0.4-0.1,0.9-0.2,1.5s-0.4,1.2-0.9,1.9
		c-0.4,0.6-1.1,1.2-1.9,1.8c-0.8,0.5-1.9,0.9-3.3,1.1v0.1c0.4,0.1,0.9,0.2,1.6,0.3c0.7,0.1,1.3,0.4,2,0.7c0.7,0.3,1.3,0.8,1.9,1.4
		s1,1.3,1.2,2.2c0.1,0.5,0.2,1.1,0.3,1.8c0.1,0.7,0.1,1.4,0.1,2.1s0.1,1.4,0.1,2c0,0.7,0.1,1.2,0.2,1.7c0.1,0.7,0.4,1.3,0.7,1.9
		s0.8,0.8,1.5,0.8c0.3,0,0.6-0.1,1-0.2c0.3-0.1,0.6-0.3,0.9-0.6l0.3,0.4c-0.1,0.1-0.3,0.2-0.4,0.3c-0.2,0.1-0.4,0.2-0.6,0.3
		c-0.2,0.1-0.5,0.2-0.9,0.3c-0.3,0.1-0.8,0.1-1.3,0.1c-1,0-1.8-0.1-2.4-0.4s-1.1-0.7-1.5-1.2s-0.7-1.1-0.8-1.9
		c-0.2-0.7-0.3-1.6-0.4-2.6l-0.3-3.6c-0.1-1.3-0.3-2.3-0.7-3.1c-0.4-0.7-0.8-1.3-1.3-1.6c-0.5-0.3-1-0.5-1.6-0.6
		c-0.5-0.1-1-0.1-1.4-0.1h-3.6v14.2h4v0.6h-11.5v-0.6H285.6z M293.1,35h3.3c0.7,0,1.3-0.1,1.8-0.3c0.5-0.2,1-0.5,1.4-1
		s0.7-1.1,0.9-1.9c0.2-0.8,0.3-1.8,0.3-3c0-1.4-0.2-2.5-0.5-3.3s-0.7-1.5-1.3-1.9c-0.5-0.4-1.1-0.7-1.7-0.8
		c-0.6-0.1-1.3-0.2-1.9-0.2c-0.4,0-0.9,0-1.3,0s-0.8,0-1.1,0.1V35H293.1z"/>
	<path d="M313.9,49.8h4v-27h-4v-0.6h11.2v0.6h-3.7v12.5h0.4l10.8-12.5H329v-0.6h7.4v0.6h-3l-9.1,10.6l13,16.4h2.4v0.6h-10.4v-0.6
		h3.2l-10.7-13.9h-0.3v13.9h3.7v0.6H314v-0.6H313.9z"/>
</g>
<g>
	<path d="M351.1,49.8h3.2l9.7-28.2h0.9l9.7,28.2h3.2v0.6h-11v-0.6h4l-3.8-11h-8.3l-3.8,11h4v0.6h-7.7v-0.6H351.1z M362.8,26.8
		l-3.9,11.5h7.9L362.8,26.8z"/>
	<path d="M381.3,49.8h4v-27h-4v-0.6h11.5v0.6h-4v27h6.4c2.1,0,3.8-0.7,4.9-2.2c1.2-1.4,2.1-3.4,2.6-5.9h0.4v8.6h-21.9v-0.5H381.3z"
		/>
</g>
<g>
	<path d="M407.5,49.8h4v-27h-4v-0.6H428V29h-0.4c-0.3-1-0.6-1.9-1-2.7c-0.4-0.8-0.8-1.4-1.3-2c-0.5-0.5-1.1-0.9-1.8-1.2
		c-0.7-0.3-1.5-0.4-2.5-0.4h-5.9V35h2.3c0.8,0,1.5-0.1,2-0.2c0.5-0.2,1-0.5,1.4-0.9s0.7-1,1-1.8c0.3-0.7,0.5-1.7,0.8-2.9h0.4v12.3
		h-0.4c-0.2-0.8-0.3-1.5-0.5-2.2s-0.4-1.3-0.8-1.9c-0.3-0.6-0.8-1-1.3-1.3s-1.2-0.5-2.1-0.5H415v14.2h6.8c1.3,0,2.4-0.3,3.3-0.9
		s1.6-1.4,2.1-2.2c0.5-0.9,1-1.7,1.2-2.7c0.3-0.9,0.4-1.7,0.5-2.3h0.4v8.6h-21.9L407.5,49.8L407.5,49.8z"/>
	<path d="M434,49.8h3.4l7.2-13.2L437,22.8h-3v-0.6h10.7v0.6h-3.4l5.7,10.4l5.7-10.4h-3.4v-0.6h7.5v0.6h-3.4l-6,10.9l8.9,16h3v0.6
		h-10.7v-0.6h3.4l-7-12.6l-7,12.7h3.4v0.6H434V49.8z"/>
</g>
<g>
	<path d="M462.7,49.8h3.2l9.7-28.2h0.9l9.7,28.2h3.2v0.6h-11v-0.6h4l-3.8-11h-8.3l-3.8,11h4v0.6h-7.7v-0.6H462.7z M474.3,26.8
		l-3.9,11.5h7.9L474.3,26.8z"/>
	<path d="M492.7,49.8h4v-27h-4v-0.6h7.7l12.1,21.5h0.1V22.8h-4v-0.6h8.5v0.6h-4v28.1h-0.7l-15.1-26.4h-0.1v25.3h4v0.6h-8.5V49.8z"/>
</g>
<g>
	<path d="M521,49.8h4v-27h-4v-0.6h6.7c0.3,0,0.7,0,1,0s0.7,0,1-0.1c0.3,0,0.7,0,1,0s0.7,0,1,0c0.7,0,1.4,0,1.9,0
		c0.6,0,1.1,0.1,1.6,0.1c0.5,0.1,1,0.2,1.4,0.3c0.4,0.1,0.9,0.3,1.4,0.5c1.5,0.5,2.7,1.2,3.8,2.1s1.9,1.9,2.6,3.1
		c0.7,1.2,1.2,2.4,1.5,3.8s0.5,2.8,0.5,4.3c0,1.7-0.2,3.3-0.6,4.7c-0.4,1.4-0.9,2.6-1.6,3.7s-1.5,2-2.3,2.8
		c-0.9,0.8-1.9,1.4-2.9,1.9c-0.6,0.3-1.1,0.5-1.6,0.7s-1,0.3-1.6,0.4c-0.5,0.1-1.1,0.1-1.8,0.2c-0.6,0-1.4,0-2.2,0
		c-0.4,0-0.7,0-1.1,0c-0.4,0-0.8,0-1.2-0.1c-0.4,0-0.8,0-1.2-0.1c-0.4,0-0.8,0-1.1,0H521V49.8z M528.5,49.8c0.4,0.1,0.9,0.1,1.4,0.1
		s1.1,0,1.8,0c0.8,0,1.6,0,2.4-0.1c0.8-0.1,1.6-0.3,2.3-0.6c0.7-0.3,1.4-0.7,2-1.3c0.6-0.6,1.2-1.3,1.7-2.2c0.8-1.4,1.3-2.9,1.6-4.4
		s0.4-3.1,0.4-4.9c0-2.1-0.2-4-0.5-5.7c-0.4-1.7-0.9-3.1-1.8-4.3c-0.8-1.2-1.9-2.1-3.3-2.8c-1.4-0.7-3-1-5.1-1c-0.6,0-1.1,0-1.6,0
		s-1,0.1-1.4,0.1L528.5,49.8L528.5,49.8z"/>
	<path d="M549.9,49.8h4v-27h-4v-0.6h20.5V29H570c-0.3-1-0.6-1.9-1-2.7c-0.4-0.8-0.8-1.4-1.3-2c-0.5-0.5-1.1-0.9-1.8-1.2
		c-0.7-0.3-1.5-0.4-2.5-0.4h-5.9V35h2.3c0.8,0,1.5-0.1,2-0.2c0.5-0.2,1-0.5,1.4-0.9s0.7-1,1-1.8c0.3-0.7,0.5-1.7,0.8-2.9h0.4v12.3
		H565c-0.2-0.8-0.3-1.5-0.5-2.2s-0.4-1.3-0.8-1.9c-0.3-0.6-0.8-1-1.3-1.3s-1.2-0.5-2.1-0.5h-2.9v14.2h6.8c1.3,0,2.4-0.3,3.3-0.9
		c0.9-0.6,1.6-1.4,2.1-2.2c0.5-0.9,1-1.7,1.2-2.7c0.3-0.9,0.4-1.7,0.5-2.3h0.4v8.6h-21.9v-0.5H549.9z"/>
</g>
<g>
	<path d="M576.4,49.8h4v-27h-4v-0.6h6.8c0.3,0,0.6,0,0.9,0c0.3,0,0.6,0,0.9-0.1c0.3,0,0.6,0,0.9,0c0.3,0,0.6,0,0.9,0
		c1.4,0,2.7,0.1,3.7,0.3c1.1,0.2,2.1,0.7,3,1.5c0.8,0.7,1.4,1.5,1.8,2.4c0.3,0.9,0.5,1.7,0.5,2.5c0,0.4-0.1,0.9-0.2,1.5
		c-0.1,0.6-0.4,1.2-0.9,1.9c-0.4,0.6-1.1,1.2-1.9,1.8c-0.8,0.5-1.9,0.9-3.3,1.1v0.1c0.4,0.1,0.9,0.2,1.6,0.3c0.7,0.1,1.3,0.4,2,0.7
		c0.7,0.3,1.3,0.8,1.9,1.4s1,1.3,1.2,2.2c0.1,0.5,0.2,1.1,0.3,1.8c0.1,0.7,0.1,1.4,0.1,2.1s0.1,1.4,0.1,2c0,0.7,0.1,1.2,0.2,1.7
		c0.1,0.7,0.4,1.3,0.7,1.9s0.8,0.8,1.5,0.8c0.3,0,0.6-0.1,1-0.2c0.3-0.1,0.6-0.3,0.9-0.6l0.3,0.4c-0.1,0.1-0.3,0.2-0.4,0.3
		c-0.2,0.1-0.4,0.2-0.6,0.3c-0.2,0.1-0.5,0.2-0.9,0.3c-0.3,0.1-0.8,0.1-1.3,0.1c-1,0-1.8-0.1-2.4-0.4c-0.6-0.3-1.1-0.7-1.5-1.2
		s-0.7-1.1-0.8-1.9c-0.2-0.7-0.3-1.6-0.4-2.6l-0.3-3.6c-0.1-1.3-0.3-2.3-0.7-3.1c-0.4-0.7-0.8-1.3-1.3-1.6c-0.5-0.3-1-0.5-1.6-0.6
		c-0.5-0.1-1-0.1-1.4-0.1H584v14.2h4v0.6h-11.5L576.4,49.8L576.4,49.8z M584,35h3.3c0.7,0,1.3-0.1,1.8-0.3c0.5-0.2,1-0.5,1.4-1
		s0.7-1.1,0.9-1.9s0.3-1.8,0.3-3c0-1.4-0.2-2.5-0.5-3.3s-0.7-1.5-1.3-1.9c-0.5-0.4-1.1-0.7-1.7-0.8c-0.6-0.1-1.3-0.2-1.9-0.2
		c-0.4,0-0.9,0-1.3,0c-0.4,0-0.8,0-1.1,0.1L584,35L584,35z"/>
</g>
<g>
	<g>
		<path class="st0" d="M222.7,49.8h4v-27h-4v-0.6h8.1l6.6,21.2h0.1l6.6-21.2h7.9v0.6h-4v27h4v0.6h-11.5v-0.6h4V23.1h-0.1l-8.6,27.3
			l-8.5-27h-0.1v26.4h4v0.6h-8.5V49.8z"/>
		<path class="st0" d="M255.4,49.8h3.2l9.7-28.2h0.9l9.7,28.2h3.2v0.6h-11v-0.6h4l-3.8-11H263l-3.8,11h4v0.6h-7.7v-0.6H255.4z
			 M267.1,26.8l-3.9,11.5h7.9L267.1,26.8z"/>
		<path class="st0" d="M285.6,49.8h4v-27h-4v-0.6h6.8c0.3,0,0.6,0,0.9,0s0.6,0,0.9-0.1c0.3,0,0.6,0,0.9,0s0.6,0,0.9,0
			c1.4,0,2.7,0.1,3.7,0.3c1.1,0.2,2.1,0.7,3,1.5c0.8,0.7,1.4,1.5,1.8,2.4c0.3,0.9,0.5,1.7,0.5,2.5c0,0.4-0.1,0.9-0.2,1.5
			s-0.4,1.2-0.9,1.9c-0.4,0.6-1.1,1.2-1.9,1.8c-0.8,0.5-1.9,0.9-3.3,1.1v0.1c0.4,0.1,0.9,0.2,1.6,0.3c0.7,0.1,1.3,0.4,2,0.7
			c0.7,0.3,1.3,0.8,1.9,1.4s1,1.3,1.2,2.2c0.1,0.5,0.2,1.1,0.3,1.8c0.1,0.7,0.1,1.4,0.1,2.1s0.1,1.4,0.1,2c0,0.7,0.1,1.2,0.2,1.7
			c0.1,0.7,0.4,1.3,0.7,1.9s0.8,0.8,1.5,0.8c0.3,0,0.6-0.1,1-0.2c0.3-0.1,0.6-0.3,0.9-0.6l0.3,0.4c-0.1,0.1-0.3,0.2-0.4,0.3
			c-0.2,0.1-0.4,0.2-0.6,0.3c-0.2,0.1-0.5,0.2-0.9,0.3c-0.3,0.1-0.8,0.1-1.3,0.1c-1,0-1.8-0.1-2.4-0.4s-1.1-0.7-1.5-1.2
			s-0.7-1.1-0.8-1.9c-0.2-0.7-0.3-1.6-0.4-2.6l-0.3-3.6c-0.1-1.3-0.3-2.3-0.7-3.1c-0.4-0.7-0.8-1.3-1.3-1.6c-0.5-0.3-1-0.5-1.6-0.6
			c-0.5-0.1-1-0.1-1.4-0.1h-3.6v14.2h4v0.6h-11.5v-0.6H285.6z M293.1,35h3.3c0.7,0,1.3-0.1,1.8-0.3c0.5-0.2,1-0.5,1.4-1
			s0.7-1.1,0.9-1.9c0.2-0.8,0.3-1.8,0.3-3c0-1.4-0.2-2.5-0.5-3.3s-0.7-1.5-1.3-1.9c-0.5-0.4-1.1-0.7-1.7-0.8
			c-0.6-0.1-1.3-0.2-1.9-0.2c-0.4,0-0.9,0-1.3,0s-0.8,0-1.1,0.1V35H293.1z"/>
		<path class="st0" d="M313.9,49.8h4v-27h-4v-0.6h11.2v0.6h-3.7v12.5h0.4l10.8-12.5H329v-0.6h7.4v0.6h-3l-9.1,10.6l13,16.4h2.4v0.6
			h-10.4v-0.6h3.2l-10.7-13.9h-0.3v13.9h3.7v0.6H314v-0.6H313.9z"/>
	</g>
	<g>
		<path class="st0" d="M351.1,49.8h3.2l9.7-28.2h0.9l9.7,28.2h3.2v0.6h-11v-0.6h4l-3.8-11h-8.3l-3.8,11h4v0.6h-7.7v-0.6H351.1z
			 M362.8,26.8l-3.9,11.5h7.9L362.8,26.8z"/>
		<path class="st0" d="M381.3,49.8h4v-27h-4v-0.6h11.5v0.6h-4v27h6.4c2.1,0,3.8-0.7,4.9-2.2c1.2-1.4,2.1-3.4,2.6-5.9h0.4v8.6h-21.9
			v-0.5H381.3z"/>
	</g>
	<g>
		<path class="st0" d="M407.5,49.8h4v-27h-4v-0.6H428V29h-0.4c-0.3-1-0.6-1.9-1-2.7c-0.4-0.8-0.8-1.4-1.3-2
			c-0.5-0.5-1.1-0.9-1.8-1.2c-0.7-0.3-1.5-0.4-2.5-0.4h-5.9V35h2.3c0.8,0,1.5-0.1,2-0.2c0.5-0.2,1-0.5,1.4-0.9s0.7-1,1-1.8
			c0.3-0.7,0.5-1.7,0.8-2.9h0.4v12.3h-0.4c-0.2-0.8-0.3-1.5-0.5-2.2s-0.4-1.3-0.8-1.9c-0.3-0.6-0.8-1-1.3-1.3s-1.2-0.5-2.1-0.5H415
			v14.2h6.8c1.3,0,2.4-0.3,3.3-0.9s1.6-1.4,2.1-2.2c0.5-0.9,1-1.7,1.2-2.7c0.3-0.9,0.4-1.7,0.5-2.3h0.4v8.6h-21.9L407.5,49.8
			L407.5,49.8z"/>
		<path class="st0" d="M434,49.8h3.4l7.2-13.2L437,22.8h-3v-0.6h10.7v0.6h-3.4l5.7,10.4l5.7-10.4h-3.4v-0.6h7.5v0.6h-3.4l-6,10.9
			l8.9,16h3v0.6h-10.7v-0.6h3.4l-7-12.6l-7,12.7h3.4v0.6H434V49.8z"/>
	</g>
	<g>
		<path class="st0" d="M462.7,49.8h3.2l9.7-28.2h0.9l9.7,28.2h3.2v0.6h-11v-0.6h4l-3.8-11h-8.3l-3.8,11h4v0.6h-7.7v-0.6H462.7z
			 M474.3,26.8l-3.9,11.5h7.9L474.3,26.8z"/>
		<path class="st0" d="M492.7,49.8h4v-27h-4v-0.6h7.7l12.1,21.5h0.1V22.8h-4v-0.6h8.5v0.6h-4v28.1h-0.7l-15.1-26.4h-0.1v25.3h4v0.6
			h-8.5V49.8z"/>
	</g>
	<g>
		<path class="st0" d="M521,49.8h4v-27h-4v-0.6h6.7c0.3,0,0.7,0,1,0s0.7,0,1-0.1c0.3,0,0.7,0,1,0s0.7,0,1,0c0.7,0,1.4,0,1.9,0
			c0.6,0,1.1,0.1,1.6,0.1c0.5,0.1,1,0.2,1.4,0.3c0.4,0.1,0.9,0.3,1.4,0.5c1.5,0.5,2.7,1.2,3.8,2.1s1.9,1.9,2.6,3.1
			c0.7,1.2,1.2,2.4,1.5,3.8s0.5,2.8,0.5,4.3c0,1.7-0.2,3.3-0.6,4.7c-0.4,1.4-0.9,2.6-1.6,3.7s-1.5,2-2.3,2.8
			c-0.9,0.8-1.9,1.4-2.9,1.9c-0.6,0.3-1.1,0.5-1.6,0.7s-1,0.3-1.6,0.4c-0.5,0.1-1.1,0.1-1.8,0.2c-0.6,0-1.4,0-2.2,0
			c-0.4,0-0.7,0-1.1,0c-0.4,0-0.8,0-1.2-0.1c-0.4,0-0.8,0-1.2-0.1c-0.4,0-0.8,0-1.1,0H521V49.8z M528.5,49.8
			c0.4,0.1,0.9,0.1,1.4,0.1s1.1,0,1.8,0c0.8,0,1.6,0,2.4-0.1c0.8-0.1,1.6-0.3,2.3-0.6c0.7-0.3,1.4-0.7,2-1.3
			c0.6-0.6,1.2-1.3,1.7-2.2c0.8-1.4,1.3-2.9,1.6-4.4s0.4-3.1,0.4-4.9c0-2.1-0.2-4-0.5-5.7c-0.4-1.7-0.9-3.1-1.8-4.3
			c-0.8-1.2-1.9-2.1-3.3-2.8c-1.4-0.7-3-1-5.1-1c-0.6,0-1.1,0-1.6,0s-1,0.1-1.4,0.1L528.5,49.8L528.5,49.8z"/>
		<path class="st0" d="M549.9,49.8h4v-27h-4v-0.6h20.5V29H570c-0.3-1-0.6-1.9-1-2.7c-0.4-0.8-0.8-1.4-1.3-2
			c-0.5-0.5-1.1-0.9-1.8-1.2c-0.7-0.3-1.5-0.4-2.5-0.4h-5.9V35h2.3c0.8,0,1.5-0.1,2-0.2c0.5-0.2,1-0.5,1.4-0.9s0.7-1,1-1.8
			c0.3-0.7,0.5-1.7,0.8-2.9h0.4v12.3H565c-0.2-0.8-0.3-1.5-0.5-2.2s-0.4-1.3-0.8-1.9c-0.3-0.6-0.8-1-1.3-1.3s-1.2-0.5-2.1-0.5h-2.9
			v14.2h6.8c1.3,0,2.4-0.3,3.3-0.9c0.9-0.6,1.6-1.4,2.1-2.2c0.5-0.9,1-1.7,1.2-2.7c0.3-0.9,0.4-1.7,0.5-2.3h0.4v8.6h-21.9v-0.5
			H549.9z"/>
	</g>
	<g>
		<path class="st0" d="M576.4,49.8h4v-27h-4v-0.6h6.8c0.3,0,0.6,0,0.9,0c0.3,0,0.6,0,0.9-0.1c0.3,0,0.6,0,0.9,0c0.3,0,0.6,0,0.9,0
			c1.4,0,2.7,0.1,3.7,0.3c1.1,0.2,2.1,0.7,3,1.5c0.8,0.7,1.4,1.5,1.8,2.4c0.3,0.9,0.5,1.7,0.5,2.5c0,0.4-0.1,0.9-0.2,1.5
			c-0.1,0.6-0.4,1.2-0.9,1.9c-0.4,0.6-1.1,1.2-1.9,1.8c-0.8,0.5-1.9,0.9-3.3,1.1v0.1c0.4,0.1,0.9,0.2,1.6,0.3c0.7,0.1,1.3,0.4,2,0.7
			c0.7,0.3,1.3,0.8,1.9,1.4s1,1.3,1.2,2.2c0.1,0.5,0.2,1.1,0.3,1.8c0.1,0.7,0.1,1.4,0.1,2.1s0.1,1.4,0.1,2c0,0.7,0.1,1.2,0.2,1.7
			c0.1,0.7,0.4,1.3,0.7,1.9s0.8,0.8,1.5,0.8c0.3,0,0.6-0.1,1-0.2c0.3-0.1,0.6-0.3,0.9-0.6l0.3,0.4c-0.1,0.1-0.3,0.2-0.4,0.3
			c-0.2,0.1-0.4,0.2-0.6,0.3c-0.2,0.1-0.5,0.2-0.9,0.3c-0.3,0.1-0.8,0.1-1.3,0.1c-1,0-1.8-0.1-2.4-0.4c-0.6-0.3-1.1-0.7-1.5-1.2
			s-0.7-1.1-0.8-1.9c-0.2-0.7-0.3-1.6-0.4-2.6l-0.3-3.6c-0.1-1.3-0.3-2.3-0.7-3.1c-0.4-0.7-0.8-1.3-1.3-1.6c-0.5-0.3-1-0.5-1.6-0.6
			c-0.5-0.1-1-0.1-1.4-0.1H584v14.2h4v0.6h-11.5L576.4,49.8L576.4,49.8z M584,35h3.3c0.7,0,1.3-0.1,1.8-0.3c0.5-0.2,1-0.5,1.4-1
			s0.7-1.1,0.9-1.9s0.3-1.8,0.3-3c0-1.4-0.2-2.5-0.5-3.3s-0.7-1.5-1.3-1.9c-0.5-0.4-1.1-0.7-1.7-0.8c-0.6-0.1-1.3-0.2-1.9-0.2
			c-0.4,0-0.9,0-1.3,0c-0.4,0-0.8,0-1.1,0.1L584,35L584,35z"/>
	</g>
</g>
<g>
	<path d="M260.3,93.1h3.3V70.7h-3.3v-0.5h5.5c0.3,0,0.6,0,0.8,0c0.3,0,0.6,0,0.8,0c0.3,0,0.6,0,0.8,0c0.3,0,0.6,0,0.8,0
		c0.6,0,1.1,0,1.6,0s0.9,0.1,1.3,0.1c0.4,0.1,0.8,0.1,1.2,0.2c0.4,0.1,0.8,0.2,1.2,0.4c1.2,0.4,2.3,1,3.1,1.8
		c0.9,0.7,1.6,1.6,2.2,2.5c0.6,1,1,2,1.2,3.1c0.3,1.1,0.4,2.3,0.4,3.6c0,1.4-0.2,2.7-0.5,3.9c-0.3,1.1-0.8,2.2-1.3,3
		c-0.6,0.9-1.2,1.6-1.9,2.3c-0.7,0.6-1.5,1.2-2.4,1.6c-0.5,0.2-0.9,0.4-1.4,0.6c-0.4,0.1-0.9,0.2-1.3,0.3s-0.9,0.1-1.5,0.1
		c-0.5,0-1.1,0-1.8,0c-0.3,0-0.6,0-1,0c-0.3,0-0.7,0-1,0s-0.7,0-1,0s-0.6,0-0.9,0h-5.1v-0.6H260.3z M266.6,93.1
		c0.3,0,0.7,0.1,1.2,0.1c0.4,0,0.9,0,1.5,0c0.7,0,1.3,0,2-0.1s1.3-0.2,1.9-0.5c0.6-0.2,1.2-0.6,1.7-1.1s1-1.1,1.4-1.8
		c0.6-1.2,1.1-2.4,1.3-3.6c0.2-1.2,0.4-2.6,0.4-4c0-1.7-0.1-3.3-0.4-4.7c-0.3-1.4-0.8-2.6-1.5-3.6s-1.6-1.8-2.7-2.3
		s-2.5-0.8-4.2-0.8c-0.5,0-0.9,0-1.4,0c-0.4,0-0.8,0-1.2,0.1L266.6,93.1L266.6,93.1z"/>
	<path d="M284.1,93.1h3.3V70.7h-3.3v-0.5h17v5.7h-0.3c-0.3-0.9-0.5-1.6-0.8-2.2s-0.7-1.2-1.1-1.6s-0.9-0.8-1.5-1s-1.3-0.3-2.1-0.3
		h-4.9v10.1h1.9c0.7,0,1.2-0.1,1.7-0.2s0.8-0.4,1.2-0.7c0.3-0.4,0.6-0.8,0.8-1.5c0.2-0.6,0.5-1.4,0.7-2.4h0.3v10.2h-0.3
		c-0.1-0.6-0.3-1.2-0.4-1.8c-0.1-0.6-0.4-1.1-0.6-1.6c-0.3-0.5-0.6-0.8-1.1-1.1c-0.4-0.3-1-0.4-1.7-0.4h-2.4v11.8h5.6
		c1.1,0,2-0.3,2.7-0.8s1.3-1.1,1.8-1.8s0.8-1.4,1-2.2s0.4-1.4,0.4-1.9h0.3v7.2h-18.1v-0.6H284.1z"/>
</g>
<g>
	<path d="M307.1,86.5h0.3c0.2,1.2,0.5,2.2,0.8,3s0.7,1.5,1.1,2s0.9,0.9,1.3,1.2c0.5,0.3,0.9,0.5,1.4,0.6s0.9,0.2,1.3,0.2
		s0.8,0,1.2,0c1.1,0,1.9-0.2,2.6-0.5s1.2-0.8,1.6-1.3s0.7-1.1,0.8-1.7c0.2-0.6,0.2-1.2,0.2-1.7c0-0.8-0.1-1.4-0.4-2
		c-0.3-0.5-0.6-1-1-1.4s-0.8-0.7-1.3-0.9s-0.9-0.4-1.3-0.6l-3.4-1.1c-1.6-0.5-2.8-1.3-3.6-2.2c-0.8-0.9-1.2-2.1-1.2-3.6
		c0-1,0.2-1.9,0.5-2.7c0.3-0.8,0.8-1.6,1.3-2.2s1.3-1.1,2.1-1.4s1.7-0.5,2.6-0.5c0.7,0,1.3,0.1,1.7,0.2s0.9,0.3,1.2,0.4
		c0.3,0.2,0.6,0.3,0.9,0.4s0.5,0.2,0.8,0.2s0.4,0,0.5-0.1s0.2-0.3,0.4-0.6h0.4v5.9h-0.4c-0.1-0.8-0.3-1.5-0.6-2.3
		c-0.3-0.7-0.7-1.4-1.1-1.9c-0.5-0.6-1-1-1.7-1.3c-0.6-0.3-1.4-0.5-2.2-0.5c-0.5,0-1,0.1-1.6,0.2s-1.1,0.4-1.6,0.7
		c-0.5,0.3-0.9,0.8-1.2,1.4c-0.3,0.6-0.5,1.3-0.5,2.2c0,0.7,0.1,1.3,0.4,1.8s0.6,0.9,1,1.2c0.4,0.3,0.9,0.6,1.4,0.9
		c0.5,0.2,1,0.4,1.5,0.6l3.6,1.2c0.4,0.1,0.9,0.3,1.4,0.5s1.1,0.5,1.7,1c0.5,0.4,1,1,1.4,1.7c0.4,0.7,0.6,1.6,0.6,2.7
		c0,1-0.2,2-0.5,2.9s-0.8,1.7-1.5,2.5c-0.7,0.7-1.4,1.3-2.4,1.7c-0.9,0.4-2,0.6-3.2,0.6c-0.4,0-0.8,0-1.1,0c-0.3,0-0.6,0-0.9-0.1
		c-0.3,0-0.6-0.1-0.8-0.1c-0.3-0.1-0.6-0.1-0.9-0.2c-0.4-0.1-0.8-0.3-1.3-0.5s-0.9-0.3-1.2-0.3c-0.3,0-0.5,0.1-0.6,0.2
		c-0.1,0.1-0.2,0.3-0.3,0.5h-0.4v-6.9H307.1z"/>
	<path d="M325.1,93.1h3.3V70.7h-3.3v-0.5h9.6v0.5h-3.3v22.4h3.3v0.5h-9.6V93.1z"/>
</g>
<g>
	<path d="M358.2,85.2h-2.4v7.4h-0.4c-0.2-0.2-0.4-0.4-0.5-0.5s-0.4-0.1-0.7-0.1c-0.4,0-0.7,0.1-1.1,0.3s-0.8,0.4-1.3,0.7
		s-1.1,0.5-1.7,0.7s-1.4,0.3-2.4,0.3c-1.4,0-2.7-0.3-3.7-0.8c-1.1-0.5-2.1-1.3-3.2-2.4c-1-1.1-1.8-2.4-2.5-3.9s-1-3.2-1-5
		c0-1.2,0.1-2.4,0.4-3.4s0.6-1.9,0.9-2.6c0.4-0.7,0.7-1.4,1.1-1.9s0.7-0.9,1-1.2c0.9-1,1.9-1.8,3.1-2.4c1.1-0.6,2.5-0.9,3.9-0.9
		c0.8,0,1.4,0.1,1.9,0.2s0.9,0.3,1.3,0.4c0.4,0.2,0.7,0.3,1,0.4s0.6,0.2,1,0.2s0.7-0.1,0.8-0.2c0.2-0.1,0.3-0.3,0.5-0.5h0.4v6.5
		h-0.3c-0.1-0.6-0.2-1.2-0.5-2s-0.6-1.5-1.1-2.2s-1.1-1.3-1.9-1.8s-1.8-0.7-3.1-0.7c-1.5,0-2.7,0.3-3.6,1s-1.6,1.6-2.1,2.7
		s-0.8,2.4-1,3.8s-0.3,2.8-0.3,4.3c0,1,0,2,0.1,2.9c0.1,0.9,0.2,1.9,0.4,2.8c0.2,0.9,0.5,1.7,0.8,2.4s0.8,1.4,1.3,1.9
		c0.6,0.6,1.2,1,1.8,1.2c0.6,0.2,1.5,0.3,2.5,0.3c0.6,0,1.2-0.1,1.8-0.3c0.6-0.2,1.2-0.6,1.7-1c0.5-0.5,0.9-1,1.2-1.8
		c0.3-0.7,0.5-1.5,0.5-2.5v-2.7H349v-0.5h9.1v0.9H358.2z"/>
	<path d="M359.9,93.1h3.3V70.7h-3.3v-0.5h6.4L376.4,88h0.1V70.6h-3.3v-0.5h7v0.5h-3.3V94h-0.6l-12.5-21.9h-0.1v21h3.3v0.5h-7v-0.5
		H359.9z"/>
</g>
<g>
	<path d="M389.9,93.1h2.6l8-23.4h0.7l8.1,23.4h2.6v0.5h-9.2v-0.5h3.3l-3-9.1h-6.9l-3.1,9.1h3.3v0.5h-6.4V93.1z M399.5,74l-3.3,9.5
		h6.5L399.5,74z"/>
	<path d="M414.7,93.1h3.3V70.7h-3.3v-0.5h5.6c0.2,0,0.5,0,0.7,0s0.5,0,0.7,0s0.5,0,0.7,0s0.5,0,0.7,0c1.2,0,2.2,0.1,3.1,0.2
		s1.7,0.6,2.5,1.2c0.7,0.6,1.2,1.3,1.5,2s0.4,1.4,0.4,2.1c0,0.3-0.1,0.7-0.2,1.3c-0.1,0.5-0.3,1-0.7,1.6c-0.4,0.5-0.9,1-1.6,1.5
		c-0.7,0.4-1.6,0.7-2.8,0.9v0.1c0.3,0,0.7,0.1,1.3,0.2c0.5,0.1,1.1,0.3,1.7,0.6c0.6,0.3,1.1,0.7,1.6,1.1s0.8,1.1,1,1.8
		c0.1,0.4,0.2,0.9,0.3,1.5c0,0.6,0.1,1.1,0.1,1.7c0,0.6,0.1,1.2,0.1,1.7s0.1,1,0.2,1.4c0.1,0.6,0.3,1.1,0.6,1.5
		c0.3,0.5,0.7,0.7,1.2,0.7c0.3,0,0.5-0.1,0.8-0.2c0.3-0.1,0.5-0.3,0.7-0.5l0.3,0.4c-0.1,0.1-0.2,0.2-0.3,0.3
		c-0.1,0.1-0.3,0.2-0.5,0.3s-0.4,0.2-0.7,0.2c-0.3,0.1-0.6,0.1-1.1,0.1c-0.8,0-1.5-0.1-2-0.3s-0.9-0.5-1.3-1
		c-0.3-0.4-0.5-0.9-0.7-1.6c-0.1-0.6-0.3-1.3-0.3-2.2l-0.2-3c-0.1-1.1-0.3-1.9-0.6-2.6c-0.3-0.6-0.7-1.1-1.1-1.3
		c-0.4-0.3-0.9-0.5-1.3-0.5s-0.9-0.1-1.2-0.1h-3v11.8h3.3v0.5h-9.6L414.7,93.1L414.7,93.1z M421,80.8h2.7c0.6,0,1.1-0.1,1.5-0.2
		s0.8-0.4,1.2-0.8c0.3-0.4,0.6-0.9,0.8-1.6c0.2-0.7,0.3-1.5,0.3-2.5c0-1.1-0.1-2-0.4-2.7s-0.6-1.2-1-1.6c-0.4-0.3-0.9-0.6-1.4-0.7
		s-1-0.2-1.6-0.2c-0.4,0-0.7,0-1.1,0s-0.7,0-0.9,0.1v10.2H421z"/>
</g>
<g>
	<path d="M440.1,93.1h3.3V70.7h-1.7c-0.4,0-0.8,0-1.3,0.1s-1,0.3-1.5,0.6c-0.5,0.3-1,0.9-1.5,1.7c-0.5,0.8-0.9,1.8-1.2,3.1h-0.3v-6
		H454v6h-0.3c-0.3-1.3-0.7-2.4-1.2-3.1c-0.5-0.8-1-1.3-1.5-1.7c-0.5-0.3-1-0.6-1.5-0.6c-0.5-0.1-0.9-0.1-1.3-0.1h-1.7v22.4h3.3v0.5
		h-9.6L440.1,93.1L440.1,93.1z"/>
	<path d="M457.2,93.1h3.3V70.7h-3.3v-0.5h9.6v0.5h-3.3v22.4h3.3v0.5h-9.6V93.1z"/>
</g>
<g>
	<path d="M470.6,86.5h0.3c0.2,1.2,0.5,2.2,0.8,3s0.7,1.5,1.1,2s0.9,0.9,1.3,1.2c0.5,0.3,0.9,0.5,1.4,0.6s0.9,0.2,1.3,0.2
		c0.4,0,0.8,0,1.2,0c1.1,0,1.9-0.2,2.6-0.5c0.7-0.3,1.2-0.8,1.6-1.3s0.7-1.1,0.8-1.7c0.2-0.6,0.2-1.2,0.2-1.7c0-0.8-0.1-1.4-0.4-2
		c-0.3-0.5-0.6-1-1-1.4s-0.8-0.7-1.3-0.9s-0.9-0.4-1.3-0.6l-3.4-1.1c-1.6-0.5-2.8-1.3-3.6-2.2c-0.8-0.9-1.2-2.1-1.2-3.6
		c0-1,0.2-1.9,0.5-2.7c0.3-0.8,0.8-1.6,1.3-2.2s1.3-1.1,2.1-1.4s1.7-0.5,2.6-0.5c0.7,0,1.3,0.1,1.7,0.2s0.9,0.3,1.2,0.4
		c0.3,0.2,0.6,0.3,0.9,0.4s0.5,0.2,0.8,0.2s0.4,0,0.5-0.1s0.2-0.3,0.4-0.6h0.4v5.9H483c-0.1-0.8-0.3-1.5-0.6-2.3
		c-0.3-0.7-0.7-1.4-1.1-1.9c-0.5-0.6-1-1-1.7-1.3c-0.6-0.3-1.4-0.5-2.2-0.5c-0.5,0-1,0.1-1.6,0.2s-1.1,0.4-1.6,0.7
		c-0.5,0.3-0.9,0.8-1.2,1.4s-0.5,1.3-0.5,2.2c0,0.7,0.1,1.3,0.4,1.8c0.3,0.5,0.6,0.9,1,1.2c0.4,0.3,0.9,0.6,1.4,0.9
		c0.5,0.2,1,0.4,1.5,0.6l3.6,1.2c0.4,0.1,0.9,0.3,1.4,0.5s1.1,0.5,1.7,1c0.5,0.4,1,1,1.4,1.7c0.4,0.7,0.6,1.6,0.6,2.7
		c0,1-0.2,2-0.5,2.9s-0.8,1.7-1.5,2.5c-0.7,0.7-1.4,1.3-2.4,1.7c-0.9,0.4-2,0.6-3.2,0.6c-0.4,0-0.8,0-1.1,0s-0.6,0-0.9-0.1
		c-0.3,0-0.6-0.1-0.8-0.1c-0.3-0.1-0.6-0.1-0.9-0.2c-0.4-0.1-0.8-0.3-1.3-0.5s-0.9-0.3-1.2-0.3s-0.5,0.1-0.6,0.2
		c-0.1,0.1-0.2,0.3-0.3,0.5h-0.4v-6.9H470.6z"/>
	<path d="M492.9,93.1h3.3V70.7h-1.7c-0.4,0-0.8,0-1.3,0.1s-1,0.3-1.5,0.6c-0.5,0.3-1,0.9-1.5,1.7c-0.5,0.8-0.9,1.8-1.2,3.1h-0.3v-6
		h18.1v6h-0.3c-0.3-1.3-0.7-2.4-1.2-3.1c-0.5-0.8-1-1.3-1.5-1.7c-0.5-0.3-1-0.6-1.5-0.6c-0.5-0.1-0.9-0.1-1.3-0.1h-1.7v22.4h3.3v0.5
		H493L492.9,93.1L492.9,93.1z"/>
</g>
<g>
	<path d="M510,93.1h3.3V70.7H510v-0.5h5.6c0.2,0,0.5,0,0.7,0s0.5,0,0.7,0s0.5,0,0.7,0s0.5,0,0.7,0c1.2,0,2.2,0.1,3.1,0.2
		c0.9,0.1,1.7,0.6,2.5,1.2c0.7,0.6,1.2,1.3,1.5,2s0.4,1.4,0.4,2.1c0,0.3-0.1,0.7-0.2,1.3c-0.1,0.5-0.3,1-0.7,1.6
		c-0.4,0.5-0.9,1-1.6,1.5c-0.7,0.4-1.6,0.7-2.8,0.9v0.1c0.3,0,0.7,0.1,1.3,0.2c0.5,0.1,1.1,0.3,1.7,0.6c0.6,0.3,1.1,0.7,1.6,1.1
		s0.8,1.1,1,1.8c0.1,0.4,0.2,0.9,0.3,1.5c0,0.6,0.1,1.1,0.1,1.7c0,0.6,0.1,1.2,0.1,1.7s0.1,1,0.2,1.4c0.1,0.6,0.3,1.1,0.6,1.5
		c0.3,0.5,0.7,0.7,1.2,0.7c0.3,0,0.5-0.1,0.8-0.2c0.3-0.1,0.5-0.3,0.7-0.5l0.3,0.4c-0.1,0.1-0.2,0.2-0.3,0.3s-0.3,0.2-0.5,0.3
		s-0.4,0.2-0.7,0.2c-0.3,0.1-0.6,0.1-1.1,0.1c-0.8,0-1.5-0.1-2-0.3s-0.9-0.5-1.3-1c-0.3-0.4-0.5-0.9-0.7-1.6
		c-0.1-0.6-0.3-1.3-0.3-2.2l-0.2-3c-0.1-1.1-0.3-1.9-0.6-2.6c-0.3-0.6-0.7-1.1-1.1-1.3c-0.4-0.3-0.9-0.5-1.3-0.5s-0.9-0.1-1.2-0.1
		h-3v11.8h3.3v0.5H510V93.1z M516.3,80.8h2.7c0.6,0,1.1-0.1,1.5-0.2s0.8-0.4,1.2-0.8c0.3-0.4,0.6-0.9,0.8-1.6s0.3-1.5,0.3-2.5
		c0-1.1-0.1-2-0.4-2.7c-0.3-0.7-0.6-1.2-1-1.6c-0.4-0.3-0.9-0.6-1.4-0.7s-1-0.2-1.6-0.2c-0.4,0-0.7,0-1.1,0c-0.4,0-0.7,0-0.9,0.1
		L516.3,80.8L516.3,80.8z"/>
	<path d="M535.8,93.1h3.3v-9.4l-6.7-13h-2.7v-0.5h9.1v0.5h-3l5.9,11.5l5.6-11.5h-3v-0.5h6.4v0.5h-2.9L542,82.6V93h3.3v0.5h-9.6v-0.4
		H535.8z"/>
</g>
<g>
	<g>
		<path class="st1" d="M260.3,93.1h3.3V70.7h-3.3v-0.5h5.5c0.3,0,0.6,0,0.8,0c0.3,0,0.6,0,0.8,0c0.3,0,0.6,0,0.8,0
			c0.3,0,0.6,0,0.8,0c0.6,0,1.1,0,1.6,0s0.9,0.1,1.3,0.1c0.4,0.1,0.8,0.1,1.2,0.2c0.4,0.1,0.8,0.2,1.2,0.4c1.2,0.4,2.3,1,3.1,1.8
			c0.9,0.7,1.6,1.6,2.2,2.5c0.6,1,1,2,1.2,3.1c0.3,1.1,0.4,2.3,0.4,3.6c0,1.4-0.2,2.7-0.5,3.9c-0.3,1.1-0.8,2.2-1.3,3
			c-0.6,0.9-1.2,1.6-1.9,2.3c-0.7,0.6-1.5,1.2-2.4,1.6c-0.5,0.2-0.9,0.4-1.4,0.6c-0.4,0.1-0.9,0.2-1.3,0.3s-0.9,0.1-1.5,0.1
			c-0.5,0-1.1,0-1.8,0c-0.3,0-0.6,0-1,0c-0.3,0-0.7,0-1,0s-0.7,0-1,0s-0.6,0-0.9,0h-5.1v-0.6H260.3z M266.6,93.1
			c0.3,0,0.7,0.1,1.2,0.1c0.4,0,0.9,0,1.5,0c0.7,0,1.3,0,2-0.1s1.3-0.2,1.9-0.5c0.6-0.2,1.2-0.6,1.7-1.1s1-1.1,1.4-1.8
			c0.6-1.2,1.1-2.4,1.3-3.6c0.2-1.2,0.4-2.6,0.4-4c0-1.7-0.1-3.3-0.4-4.7c-0.3-1.4-0.8-2.6-1.5-3.6s-1.6-1.8-2.7-2.3
			s-2.5-0.8-4.2-0.8c-0.5,0-0.9,0-1.4,0c-0.4,0-0.8,0-1.2,0.1L266.6,93.1L266.6,93.1z"/>
		<path class="st1" d="M284.1,93.1h3.3V70.7h-3.3v-0.5h17v5.7h-0.3c-0.3-0.9-0.5-1.6-0.8-2.2s-0.7-1.2-1.1-1.6s-0.9-0.8-1.5-1
			s-1.3-0.3-2.1-0.3h-4.9v10.1h1.9c0.7,0,1.2-0.1,1.7-0.2s0.8-0.4,1.2-0.7c0.3-0.4,0.6-0.8,0.8-1.5c0.2-0.6,0.5-1.4,0.7-2.4h0.3
			v10.2h-0.3c-0.1-0.6-0.3-1.2-0.4-1.8c-0.1-0.6-0.4-1.1-0.6-1.6c-0.3-0.5-0.6-0.8-1.1-1.1c-0.4-0.3-1-0.4-1.7-0.4h-2.4v11.8h5.6
			c1.1,0,2-0.3,2.7-0.8s1.3-1.1,1.8-1.8s0.8-1.4,1-2.2s0.4-1.4,0.4-1.9h0.3v7.2h-18.1v-0.6H284.1z"/>
	</g>
	<g>
		<path class="st1" d="M307.1,86.5h0.3c0.2,1.2,0.5,2.2,0.8,3s0.7,1.5,1.1,2s0.9,0.9,1.3,1.2c0.5,0.3,0.9,0.5,1.4,0.6
			s0.9,0.2,1.3,0.2s0.8,0,1.2,0c1.1,0,1.9-0.2,2.6-0.5s1.2-0.8,1.6-1.3s0.7-1.1,0.8-1.7c0.2-0.6,0.2-1.2,0.2-1.7
			c0-0.8-0.1-1.4-0.4-2c-0.3-0.5-0.6-1-1-1.4s-0.8-0.7-1.3-0.9s-0.9-0.4-1.3-0.6l-3.4-1.1c-1.6-0.5-2.8-1.3-3.6-2.2
			c-0.8-0.9-1.2-2.1-1.2-3.6c0-1,0.2-1.9,0.5-2.7c0.3-0.8,0.8-1.6,1.3-2.2s1.3-1.1,2.1-1.4s1.7-0.5,2.6-0.5c0.7,0,1.3,0.1,1.7,0.2
			s0.9,0.3,1.2,0.4c0.3,0.2,0.6,0.3,0.9,0.4s0.5,0.2,0.8,0.2s0.4,0,0.5-0.1s0.2-0.3,0.4-0.6h0.4v5.9h-0.4c-0.1-0.8-0.3-1.5-0.6-2.3
			c-0.3-0.7-0.7-1.4-1.1-1.9c-0.5-0.6-1-1-1.7-1.3c-0.6-0.3-1.4-0.5-2.2-0.5c-0.5,0-1,0.1-1.6,0.2s-1.1,0.4-1.6,0.7
			c-0.5,0.3-0.9,0.8-1.2,1.4c-0.3,0.6-0.5,1.3-0.5,2.2c0,0.7,0.1,1.3,0.4,1.8s0.6,0.9,1,1.2c0.4,0.3,0.9,0.6,1.4,0.9
			c0.5,0.2,1,0.4,1.5,0.6l3.6,1.2c0.4,0.1,0.9,0.3,1.4,0.5s1.1,0.5,1.7,1c0.5,0.4,1,1,1.4,1.7c0.4,0.7,0.6,1.6,0.6,2.7
			c0,1-0.2,2-0.5,2.9s-0.8,1.7-1.5,2.5c-0.7,0.7-1.4,1.3-2.4,1.7c-0.9,0.4-2,0.6-3.2,0.6c-0.4,0-0.8,0-1.1,0c-0.3,0-0.6,0-0.9-0.1
			c-0.3,0-0.6-0.1-0.8-0.1c-0.3-0.1-0.6-0.1-0.9-0.2c-0.4-0.1-0.8-0.3-1.3-0.5s-0.9-0.3-1.2-0.3c-0.3,0-0.5,0.1-0.6,0.2
			c-0.1,0.1-0.2,0.3-0.3,0.5h-0.4v-6.9H307.1z"/>
		<path class="st1" d="M325.1,93.1h3.3V70.7h-3.3v-0.5h9.6v0.5h-3.3v22.4h3.3v0.5h-9.6V93.1z"/>
	</g>
	<g>
		<path class="st1" d="M358.2,85.2h-2.4v7.4h-0.4c-0.2-0.2-0.4-0.4-0.5-0.5s-0.4-0.1-0.7-0.1c-0.4,0-0.7,0.1-1.1,0.3
			s-0.8,0.4-1.3,0.7s-1.1,0.5-1.7,0.7s-1.4,0.3-2.4,0.3c-1.4,0-2.7-0.3-3.7-0.8c-1.1-0.5-2.1-1.3-3.2-2.4c-1-1.1-1.8-2.4-2.5-3.9
			s-1-3.2-1-5c0-1.2,0.1-2.4,0.4-3.4s0.6-1.9,0.9-2.6c0.4-0.7,0.7-1.4,1.1-1.9s0.7-0.9,1-1.2c0.9-1,1.9-1.8,3.1-2.4
			c1.1-0.6,2.5-0.9,3.9-0.9c0.8,0,1.4,0.1,1.9,0.2s0.9,0.3,1.3,0.4c0.4,0.2,0.7,0.3,1,0.4s0.6,0.2,1,0.2s0.7-0.1,0.8-0.2
			c0.2-0.1,0.3-0.3,0.5-0.5h0.4v6.5h-0.3c-0.1-0.6-0.2-1.2-0.5-2s-0.6-1.5-1.1-2.2s-1.1-1.3-1.9-1.8s-1.8-0.7-3.1-0.7
			c-1.5,0-2.7,0.3-3.6,1s-1.6,1.6-2.1,2.7s-0.8,2.4-1,3.8s-0.3,2.8-0.3,4.3c0,1,0,2,0.1,2.9c0.1,0.9,0.2,1.9,0.4,2.8
			c0.2,0.9,0.5,1.7,0.8,2.4s0.8,1.4,1.3,1.9c0.6,0.6,1.2,1,1.8,1.2c0.6,0.2,1.5,0.3,2.5,0.3c0.6,0,1.2-0.1,1.8-0.3
			c0.6-0.2,1.2-0.6,1.7-1c0.5-0.5,0.9-1,1.2-1.8c0.3-0.7,0.5-1.5,0.5-2.5v-2.7H349v-0.5h9.1v0.9H358.2z"/>
		<path class="st1" d="M359.9,93.1h3.3V70.7h-3.3v-0.5h6.4L376.4,88h0.1V70.6h-3.3v-0.5h7v0.5h-3.3V94h-0.6l-12.5-21.9h-0.1v21h3.3
			v0.5h-7v-0.5H359.9z"/>
	</g>
	<g>
		<path class="st1" d="M389.9,93.1h2.6l8-23.4h0.7l8.1,23.4h2.6v0.5h-9.2v-0.5h3.3l-3-9.1h-6.9l-3.1,9.1h3.3v0.5h-6.4V93.1z
			 M399.5,74l-3.3,9.5h6.5L399.5,74z"/>
		<path class="st1" d="M414.7,93.1h3.3V70.7h-3.3v-0.5h5.6c0.2,0,0.5,0,0.7,0s0.5,0,0.7,0s0.5,0,0.7,0s0.5,0,0.7,0
			c1.2,0,2.2,0.1,3.1,0.2s1.7,0.6,2.5,1.2c0.7,0.6,1.2,1.3,1.5,2s0.4,1.4,0.4,2.1c0,0.3-0.1,0.7-0.2,1.3c-0.1,0.5-0.3,1-0.7,1.6
			c-0.4,0.5-0.9,1-1.6,1.5c-0.7,0.4-1.6,0.7-2.8,0.9v0.1c0.3,0,0.7,0.1,1.3,0.2c0.5,0.1,1.1,0.3,1.7,0.6c0.6,0.3,1.1,0.7,1.6,1.1
			s0.8,1.1,1,1.8c0.1,0.4,0.2,0.9,0.3,1.5c0,0.6,0.1,1.1,0.1,1.7c0,0.6,0.1,1.2,0.1,1.7s0.1,1,0.2,1.4c0.1,0.6,0.3,1.1,0.6,1.5
			c0.3,0.5,0.7,0.7,1.2,0.7c0.3,0,0.5-0.1,0.8-0.2c0.3-0.1,0.5-0.3,0.7-0.5l0.3,0.4c-0.1,0.1-0.2,0.2-0.3,0.3
			c-0.1,0.1-0.3,0.2-0.5,0.3s-0.4,0.2-0.7,0.2c-0.3,0.1-0.6,0.1-1.1,0.1c-0.8,0-1.5-0.1-2-0.3s-0.9-0.5-1.3-1
			c-0.3-0.4-0.5-0.9-0.7-1.6c-0.1-0.6-0.3-1.3-0.3-2.2l-0.2-3c-0.1-1.1-0.3-1.9-0.6-2.6c-0.3-0.6-0.7-1.1-1.1-1.3
			c-0.4-0.3-0.9-0.5-1.3-0.5s-0.9-0.1-1.2-0.1h-3v11.8h3.3v0.5h-9.6L414.7,93.1L414.7,93.1z M421,80.8h2.7c0.6,0,1.1-0.1,1.5-0.2
			s0.8-0.4,1.2-0.8c0.3-0.4,0.6-0.9,0.8-1.6c0.2-0.7,0.3-1.5,0.3-2.5c0-1.1-0.1-2-0.4-2.7s-0.6-1.2-1-1.6c-0.4-0.3-0.9-0.6-1.4-0.7
			s-1-0.2-1.6-0.2c-0.4,0-0.7,0-1.1,0s-0.7,0-0.9,0.1v10.2H421z"/>
	</g>
	<g>
		<path class="st1" d="M440.1,93.1h3.3V70.7h-1.7c-0.4,0-0.8,0-1.3,0.1s-1,0.3-1.5,0.6c-0.5,0.3-1,0.9-1.5,1.7
			c-0.5,0.8-0.9,1.8-1.2,3.1h-0.3v-6H454v6h-0.3c-0.3-1.3-0.7-2.4-1.2-3.1c-0.5-0.8-1-1.3-1.5-1.7c-0.5-0.3-1-0.6-1.5-0.6
			c-0.5-0.1-0.9-0.1-1.3-0.1h-1.7v22.4h3.3v0.5h-9.6L440.1,93.1L440.1,93.1z"/>
		<path class="st1" d="M457.2,93.1h3.3V70.7h-3.3v-0.5h9.6v0.5h-3.3v22.4h3.3v0.5h-9.6V93.1z"/>
	</g>
	<g>
		<path class="st1" d="M470.6,86.5h0.3c0.2,1.2,0.5,2.2,0.8,3s0.7,1.5,1.1,2s0.9,0.9,1.3,1.2c0.5,0.3,0.9,0.5,1.4,0.6
			s0.9,0.2,1.3,0.2c0.4,0,0.8,0,1.2,0c1.1,0,1.9-0.2,2.6-0.5c0.7-0.3,1.2-0.8,1.6-1.3s0.7-1.1,0.8-1.7c0.2-0.6,0.2-1.2,0.2-1.7
			c0-0.8-0.1-1.4-0.4-2c-0.3-0.5-0.6-1-1-1.4s-0.8-0.7-1.3-0.9s-0.9-0.4-1.3-0.6l-3.4-1.1c-1.6-0.5-2.8-1.3-3.6-2.2
			c-0.8-0.9-1.2-2.1-1.2-3.6c0-1,0.2-1.9,0.5-2.7c0.3-0.8,0.8-1.6,1.3-2.2s1.3-1.1,2.1-1.4s1.7-0.5,2.6-0.5c0.7,0,1.3,0.1,1.7,0.2
			s0.9,0.3,1.2,0.4c0.3,0.2,0.6,0.3,0.9,0.4s0.5,0.2,0.8,0.2s0.4,0,0.5-0.1s0.2-0.3,0.4-0.6h0.4v5.9H483c-0.1-0.8-0.3-1.5-0.6-2.3
			c-0.3-0.7-0.7-1.4-1.1-1.9c-0.5-0.6-1-1-1.7-1.3c-0.6-0.3-1.4-0.5-2.2-0.5c-0.5,0-1,0.1-1.6,0.2s-1.1,0.4-1.6,0.7
			c-0.5,0.3-0.9,0.8-1.2,1.4s-0.5,1.3-0.5,2.2c0,0.7,0.1,1.3,0.4,1.8c0.3,0.5,0.6,0.9,1,1.2c0.4,0.3,0.9,0.6,1.4,0.9
			c0.5,0.2,1,0.4,1.5,0.6l3.6,1.2c0.4,0.1,0.9,0.3,1.4,0.5s1.1,0.5,1.7,1c0.5,0.4,1,1,1.4,1.7c0.4,0.7,0.6,1.6,0.6,2.7
			c0,1-0.2,2-0.5,2.9s-0.8,1.7-1.5,2.5c-0.7,0.7-1.4,1.3-2.4,1.7c-0.9,0.4-2,0.6-3.2,0.6c-0.4,0-0.8,0-1.1,0s-0.6,0-0.9-0.1
			c-0.3,0-0.6-0.1-0.8-0.1c-0.3-0.1-0.6-0.1-0.9-0.2c-0.4-0.1-0.8-0.3-1.3-0.5s-0.9-0.3-1.2-0.3s-0.5,0.1-0.6,0.2
			c-0.1,0.1-0.2,0.3-0.3,0.5h-0.4v-6.9H470.6z"/>
		<path class="st1" d="M492.9,93.1h3.3V70.7h-1.7c-0.4,0-0.8,0-1.3,0.1s-1,0.3-1.5,0.6c-0.5,0.3-1,0.9-1.5,1.7
			c-0.5,0.8-0.9,1.8-1.2,3.1h-0.3v-6h18.1v6h-0.3c-0.3-1.3-0.7-2.4-1.2-3.1c-0.5-0.8-1-1.3-1.5-1.7c-0.5-0.3-1-0.6-1.5-0.6
			c-0.5-0.1-0.9-0.1-1.3-0.1h-1.7v22.4h3.3v0.5H493L492.9,93.1L492.9,93.1z"/>
	</g>
	<g>
		<path class="st1" d="M510,93.1h3.3V70.7H510v-0.5h5.6c0.2,0,0.5,0,0.7,0s0.5,0,0.7,0s0.5,0,0.7,0s0.5,0,0.7,0
			c1.2,0,2.2,0.1,3.1,0.2c0.9,0.1,1.7,0.6,2.5,1.2c0.7,0.6,1.2,1.3,1.5,2s0.4,1.4,0.4,2.1c0,0.3-0.1,0.7-0.2,1.3
			c-0.1,0.5-0.3,1-0.7,1.6c-0.4,0.5-0.9,1-1.6,1.5c-0.7,0.4-1.6,0.7-2.8,0.9v0.1c0.3,0,0.7,0.1,1.3,0.2c0.5,0.1,1.1,0.3,1.7,0.6
			c0.6,0.3,1.1,0.7,1.6,1.1s0.8,1.1,1,1.8c0.1,0.4,0.2,0.9,0.3,1.5c0,0.6,0.1,1.1,0.1,1.7c0,0.6,0.1,1.2,0.1,1.7s0.1,1,0.2,1.4
			c0.1,0.6,0.3,1.1,0.6,1.5c0.3,0.5,0.7,0.7,1.2,0.7c0.3,0,0.5-0.1,0.8-0.2c0.3-0.1,0.5-0.3,0.7-0.5l0.3,0.4
			c-0.1,0.1-0.2,0.2-0.3,0.3s-0.3,0.2-0.5,0.3s-0.4,0.2-0.7,0.2c-0.3,0.1-0.6,0.1-1.1,0.1c-0.8,0-1.5-0.1-2-0.3s-0.9-0.5-1.3-1
			c-0.3-0.4-0.5-0.9-0.7-1.6c-0.1-0.6-0.3-1.3-0.3-2.2l-0.2-3c-0.1-1.1-0.3-1.9-0.6-2.6c-0.3-0.6-0.7-1.1-1.1-1.3
			c-0.4-0.3-0.9-0.5-1.3-0.5s-0.9-0.1-1.2-0.1h-3v11.8h3.3v0.5H510V93.1z M516.3,80.8h2.7c0.6,0,1.1-0.1,1.5-0.2s0.8-0.4,1.2-0.8
			c0.3-0.4,0.6-0.9,0.8-1.6s0.3-1.5,0.3-2.5c0-1.1-0.1-2-0.4-2.7c-0.3-0.7-0.6-1.2-1-1.6c-0.4-0.3-0.9-0.6-1.4-0.7s-1-0.2-1.6-0.2
			c-0.4,0-0.7,0-1.1,0c-0.4,0-0.7,0-0.9,0.1L516.3,80.8L516.3,80.8z"/>
		<path class="st1" d="M535.8,93.1h3.3v-9.4l-6.7-13h-2.7v-0.5h9.1v0.5h-3l5.9,11.5l5.6-11.5h-3v-0.5h6.4v0.5h-2.9L542,82.6V93h3.3
			v0.5h-9.6v-0.4H535.8z"/>
	</g>
</g>
</svg>
