<?xml version="1.0" encoding="utf-8"?>
<!-- Generator: Adobe Illustrator 22.0.0, SVG Export Plug-In . SVG Version: 6.00 Build 0)  -->
<svg version="1.1" id="Layer_1" xmlns="http://www.w3.org/2000/svg" xmlns:xlink="http://www.w3.org/1999/xlink" x="0px" y="0px"
	 viewBox="0 0 599.6 53.6" style="enable-background:new 0 0 599.6 53.6;" xml:space="preserve">
<style type="text/css">
	.st0{fill:#010101;}
	.st1{fill:none;stroke:#010101;stroke-width:0.5005;stroke-miterlimit:3.5312;}
</style>
<g>
	<g>
		<path class="st0" d="M-0.1,50.3h7V3.9h-7V3h35.9v11.7h-0.7c-0.5-1.8-1.1-3.3-1.8-4.6c-0.6-1.3-1.4-2.5-2.3-3.4s-1.9-1.6-3.1-2.1
			s-2.7-0.7-4.4-0.7H13.2v22h4.1c1.4,0,2.6-0.1,3.5-0.4c1-0.3,1.8-0.8,2.5-1.5s1.3-1.8,1.8-3.1c0.5-1.3,1-3,1.4-5h0.7V37h-0.7
			c-0.3-1.3-0.6-2.6-0.9-3.8c-0.3-1.2-0.8-2.3-1.3-3.3S23,28.2,22,27.6c-0.9-0.6-2.2-0.8-3.7-0.8h-5.1v23.5h7v1H-0.1V50.3z"/>
		<path class="st0" d="M46.5,50.3h7V3.9h-7V3h11.9c0.5,0,1,0,1.5,0s1-0.1,1.5-0.1s1,0,1.5,0s1,0,1.5,0c2.5,0,4.6,0.1,6.5,0.4
			s3.6,1.1,5.3,2.5c1.5,1.2,2.5,2.6,3.1,4.1s0.9,3,0.9,4.3c0,0.7-0.1,1.5-0.3,2.6s-0.7,2.1-1.5,3.3c-0.8,1.1-1.9,2.1-3.4,3.1
			c-1.5,0.9-3.4,1.5-5.8,1.9v0.1c0.7,0.1,1.6,0.3,2.7,0.5c1.2,0.2,2.3,0.7,3.5,1.3c1.2,0.6,2.3,1.4,3.3,2.3c1,1,1.7,2.2,2.1,3.8
			c0.3,0.9,0.4,1.9,0.5,3.1s0.2,2.3,0.3,3.6c0.1,1.2,0.1,2.4,0.2,3.5c0.1,1.1,0.2,2.1,0.3,2.8c0.3,1.2,0.6,2.2,1.2,3.2
			c0.5,0.9,1.4,1.4,2.6,1.4c0.5,0,1.1-0.1,1.7-0.3c0.6-0.2,1.1-0.6,1.6-1.1l0.6,0.7c-0.2,0.2-0.5,0.4-0.7,0.6
			c-0.3,0.2-0.6,0.4-1,0.6s-0.9,0.3-1.5,0.4s-1.4,0.2-2.2,0.2c-1.7,0-3.1-0.2-4.2-0.7c-1.1-0.5-2-1.1-2.7-2s-1.2-2-1.5-3.3
			s-0.5-2.8-0.7-4.5l-0.4-6.2c-0.2-2.3-0.6-4-1.3-5.3s-1.5-2.2-2.4-2.8c-0.9-0.6-1.8-0.9-2.8-1.1c-1-0.1-1.8-0.2-2.5-0.2h-6.1v24.5
			h7v1H46.6v-0.9H46.5z M59.8,24.8h5.8c1.2,0,2.2-0.2,3.2-0.5s1.8-0.9,2.5-1.7c0.7-0.8,1.2-1.9,1.6-3.2s0.6-3.1,0.6-5.2
			c0-2.4-0.3-4.2-0.8-5.7c-0.6-1.4-1.3-2.5-2.2-3.2s-1.9-1.2-3-1.4c-1.1-0.2-2.2-0.3-3.3-0.3c-0.8,0-1.5,0-2.3,0s-1.4,0.1-2,0.2v21
			H59.8z"/>
	</g>
	<g>
		<path class="st0" d="M98.8,50.3h7V3.9h-7V3h36v11.7h-0.7c-0.5-1.8-1.1-3.3-1.8-4.6c-0.6-1.3-1.4-2.5-2.3-3.4
			c-0.9-0.9-1.9-1.6-3.1-2.1c-1.2-0.5-2.7-0.7-4.4-0.7h-10.4v21h4.1c1.4,0,2.6-0.1,3.5-0.4c1-0.3,1.8-0.8,2.5-1.5s1.3-1.8,1.8-3.1
			c0.5-1.3,1-3,1.4-5h0.7V36h-0.7c-0.3-1.3-0.6-2.6-0.9-3.8c-0.3-1.2-0.8-2.3-1.3-3.3s-1.3-1.7-2.3-2.3c-0.9-0.6-2.2-0.8-3.7-0.8
			h-5.1v24.5H124c2.3,0,4.2-0.5,5.7-1.6s2.8-2.3,3.7-3.8c1-1.5,1.7-3,2.1-4.6c0.5-1.6,0.8-2.9,0.9-3.9h0.7v14.9H98.8V50.3z"/>
		<path class="st0" d="M147.6,50.3h7V3.9h-7V3H161l21.2,37h0.1V4h-7V3.1h14.9V4h-7v48.3h-1.3L155.5,6.8h-0.1v43.6h7v1h-14.9
			L147.6,50.3L147.6,50.3z"/>
	</g>
	<g>
		<path class="st0" d="M235.8,51.2h-1c-0.3-0.4-0.6-0.7-1-1s-1-0.4-1.8-0.4c-0.6,0-1.3,0.1-2,0.4c-0.7,0.2-1.6,0.5-2.5,0.8
			s-2,0.6-3.2,0.8c-1.2,0.2-2.5,0.4-3.9,0.4c-2.6,0-5.2-0.5-7.7-1.6c-2.5-1-4.8-2.7-7.1-5.1c-2.1-2.2-3.8-4.8-5.2-7.9
			c-1.4-3-2.1-6.5-2.1-10.5c0-3.4,0.6-6.6,1.7-9.7s2.7-5.8,4.7-8.1c2-2.4,4.4-4.2,7.1-5.6s5.7-2.1,8.9-2.1c1.3,0,2.4,0.1,3.5,0.4
			c1,0.3,1.9,0.6,2.7,0.9c0.8,0.3,1.5,0.6,2.2,0.9s1.3,0.4,1.9,0.4c0.8,0,1.4-0.1,1.8-0.4s0.7-0.6,1-1h0.9v13.6H234
			c-0.4-1.7-0.9-3.4-1.4-5.1c-0.6-1.7-1.4-3.2-2.4-4.4c-1-1.3-2.4-2.3-4-3.1c-1.6-0.8-3.6-1.2-6-1.2c-2.2,0-4.1,0.4-5.7,1.1
			s-2.9,1.7-4,3c-1.1,1.2-2,2.7-2.6,4.3c-0.6,1.7-1.1,3.4-1.5,5.2c-0.3,1.8-0.6,3.7-0.7,5.6s-0.2,3.7-0.2,5.3
			c0,4.7,0.4,8.7,1.1,11.8c0.7,3.1,1.7,5.6,3,7.4s2.8,3.1,4.6,3.8c1.8,0.7,3.8,1.1,6,1.1c2.8,0,5.1-0.4,6.8-1.3
			c1.7-0.9,3.1-2,4.1-3.4s1.8-2.9,2.4-4.7c0.5-1.7,1-3.5,1.4-5.2h0.7v14.6H235.8z"/>
		<path class="st0" d="M246.1,50.3h7V3.9h-7V3h20.2v0.9h-7v22.2h20.9V3.9h-7V3h20.2v0.9h-7v46.4h7v1h-20.2v-1h7V27h-20.9v23.3h7v1
			h-20.2V50.3z"/>
	</g>
	<g>
		<path class="st0" d="M333.6,50.3h7V3.9H337c-0.8,0-1.8,0.1-2.8,0.2c-1,0.2-2.1,0.6-3.2,1.3c-1.1,0.7-2.1,1.9-3.1,3.4
			c-1,1.6-1.8,3.7-2.5,6.5h-0.7V2.9h38.1v12.4h-0.7c-0.7-2.8-1.6-4.9-2.5-6.5c-0.9-1.6-2-2.7-3.1-3.4c-1.1-0.7-2.1-1.2-3.2-1.3
			c-1-0.2-2-0.2-2.8-0.2h-3.6v46.4h7v1h-20.2L333.6,50.3L333.6,50.3z"/>
		<path class="st0" d="M367,50.3h5.5l17-48.6h1.5l17.1,48.6h5.6v1h-19.3v-1h7l-6.6-18.9h-14.6l-6.6,18.9h7v1h-13.5v-1H367z
			 M387.4,10.7l-6.9,19.7h13.8L387.4,10.7z"/>
	</g>
	<g>
		<path class="st0" d="M422.5,50.3h7V3.9h-7V3h11c0.6,0,1.3,0,1.9,0c0.6,0,1.3-0.1,2-0.1c0.7,0,1.3,0,1.9,0c0.6,0,1.2,0,1.8,0
			c3.1,0,5.6,0.4,7.5,1.2c2,0.8,3.5,1.8,4.6,2.9c1.1,1.2,1.9,2.4,2.3,3.7c0.4,1.3,0.6,2.5,0.6,3.6c0,1.5-0.3,2.9-0.9,4.1
			c-0.6,1.3-1.4,2.4-2.5,3.3c-1,0.9-2.2,1.7-3.5,2.3c-1.3,0.6-2.7,1-4.2,1.2v0.1c1.5,0.1,3,0.5,4.6,1.1s3,1.4,4.3,2.4
			s2.3,2.3,3.1,3.8s1.2,3.2,1.2,5.2s-0.4,3.9-1.1,5.6c-0.7,1.7-1.8,3.2-3.2,4.4c-1.4,1.2-3.2,2.2-5.4,2.9c-2.2,0.7-4.7,1.1-7.6,1.1
			c-0.6,0-1.2,0-1.7,0c-0.6,0-1.2-0.1-1.8-0.1s-1.3-0.1-1.9-0.1c-0.7,0-1.4,0-2.1,0h-11v-1.3H422.5z M435.7,24.8h5.8
			c1.2,0,2.2-0.2,3.2-0.5s1.8-0.9,2.5-1.7c0.7-0.8,1.2-1.9,1.6-3.2s0.6-3.1,0.6-5.2c0-2.4-0.3-4.2-0.8-5.7c-0.6-1.4-1.3-2.5-2.2-3.2
			s-1.9-1.2-3-1.4c-1.1-0.2-2.2-0.3-3.3-0.3c-0.8,0-1.5,0-2.3,0s-1.4,0.1-2,0.2L435.7,24.8L435.7,24.8z M435.7,50.3
			c0.5,0,1.1,0.1,1.7,0.2s1.5,0.1,2.6,0.1c2,0,3.7-0.2,5.1-0.6s2.6-1.1,3.5-2.1s1.6-2.4,2-4c0.4-1.7,0.6-3.8,0.6-6.3
			c0-3.6-0.7-6.5-2.1-8.5c-1.4-2.1-3.5-3.1-6.3-3.1h-6.9v24.3H435.7z"/>
		<path class="st0" d="M466.9,50.3h7V3.9h-7V3h20.2v0.9h-7v46.4h11.2c3.7,0,6.6-1.2,8.7-3.7s3.6-5.9,4.6-10.2h0.7v14.9h-38.4V50.3z"
			/>
	</g>
	<g>
		<path class="st0" d="M515.4,50.3h7V3.9h-7V3h35.9v11.7h-0.7c-0.5-1.8-1.1-3.3-1.8-4.6c-0.6-1.3-1.4-2.5-2.3-3.4
			c-0.9-0.9-1.9-1.6-3.1-2.1c-1.2-0.5-2.7-0.7-4.4-0.7h-10.4v21h4.1c1.4,0,2.6-0.1,3.5-0.4c1-0.3,1.8-0.8,2.5-1.5s1.3-1.8,1.8-3.1
			c0.5-1.3,1-3,1.4-5h0.7V36h-0.7c-0.3-1.3-0.6-2.6-0.9-3.8c-0.3-1.2-0.8-2.3-1.3-3.3c-0.6-0.9-1.3-1.7-2.3-2.3
			c-0.9-0.6-2.2-0.8-3.7-0.8h-5.1v24.5h11.9c2.3,0,4.2-0.5,5.7-1.6s2.8-2.3,3.7-3.8s1.7-3,2.1-4.6c0.5-1.6,0.8-2.9,0.9-3.9h0.7v14.9
			h-38.3L515.4,50.3L515.4,50.3z"/>
		<path class="st0" d="M566.9,36.6h0.7c0.5,2.4,1.1,4.5,1.8,6.2s1.5,3.1,2.4,4.1c0.9,1.1,1.8,1.9,2.8,2.5s1.9,1,2.9,1.3
			s1.9,0.4,2.8,0.5s1.7,0.1,2.5,0.1c2.2,0,4-0.4,5.5-1.1c1.4-0.7,2.6-1.6,3.4-2.7c0.8-1.1,1.4-2.3,1.8-3.6c0.3-1.3,0.5-2.5,0.5-3.6
			c0-1.6-0.3-2.9-0.8-4.1c-0.5-1.1-1.2-2.1-2.1-2.9c-0.8-0.8-1.8-1.4-2.7-1.9c-1-0.5-1.9-0.9-2.8-1.2l-7.2-2.4
			c-3.4-1.1-6-2.6-7.7-4.5s-2.6-4.3-2.6-7.5c0-2,0.3-3.9,1-5.7c0.7-1.7,1.6-3.2,2.8-4.5s2.7-2.3,4.4-3s3.6-1.1,5.6-1.1
			c1.5,0,2.7,0.1,3.7,0.4s1.8,0.6,2.5,0.9s1.3,0.6,1.9,0.9c0.6,0.3,1.1,0.4,1.7,0.4c0.5,0,0.9-0.1,1.1-0.2c0.2-0.2,0.4-0.6,0.8-1.2
			h0.9V15h-0.8c-0.2-1.6-0.7-3.2-1.3-4.7s-1.4-2.8-2.4-4s-2.1-2.1-3.5-2.8c-1.4-0.7-2.9-1.1-4.7-1.1c-1,0-2.1,0.1-3.3,0.4
			s-2.3,0.8-3.4,1.5c-1,0.7-1.9,1.7-2.6,2.8c-0.7,1.2-1,2.7-1,4.5c0,1.4,0.3,2.7,0.8,3.7s1.2,1.9,2.1,2.6c0.9,0.7,1.8,1.3,2.9,1.8
			c1.1,0.5,2.1,0.9,3.2,1.3l7.6,2.6c0.8,0.3,1.8,0.6,3,1.1s2.4,1.1,3.5,2c1.2,0.9,2.1,2.1,3,3.6c0.8,1.5,1.2,3.4,1.2,5.7
			c0,2.1-0.4,4.1-1.1,6.1c-0.7,1.9-1.8,3.6-3.2,5.1s-3.1,2.6-5,3.5c-2,0.9-4.2,1.3-6.7,1.3c-0.9,0-1.7,0-2.3,0
			c-0.7,0-1.3-0.1-1.9-0.2c-0.6-0.1-1.2-0.2-1.8-0.3c-0.6-0.1-1.2-0.3-1.9-0.5c-0.8-0.3-1.7-0.6-2.7-1s-1.8-0.5-2.5-0.5
			c-0.6,0-1.1,0.1-1.3,0.4s-0.4,0.6-0.6,1.1h-0.9L566.9,36.6L566.9,36.6z"/>
	</g>
	<g>
		<g>
			<path class="st1" d="M-0.1,50.3h7V3.9h-7V3h35.9v11.7h-0.7c-0.5-1.8-1.1-3.3-1.8-4.6c-0.6-1.3-1.4-2.5-2.3-3.4s-1.9-1.6-3.1-2.1
				s-2.7-0.7-4.4-0.7H13.2v22h4.1c1.4,0,2.6-0.1,3.5-0.4c1-0.3,1.8-0.8,2.5-1.5s1.3-1.8,1.8-3.1c0.5-1.3,1-3,1.4-5h0.7V37h-0.7
				c-0.3-1.3-0.6-2.6-0.9-3.8c-0.3-1.2-0.8-2.3-1.3-3.3S23,28.2,22,27.6c-0.9-0.6-2.2-0.8-3.7-0.8h-5.1v23.5h7v1H-0.1V50.3z"/>
			<path class="st1" d="M46.5,50.3h7V3.9h-7V3h11.9c0.5,0,1,0,1.5,0s1-0.1,1.5-0.1s1,0,1.5,0s1,0,1.5,0c2.5,0,4.6,0.1,6.5,0.4
				s3.6,1.1,5.3,2.5c1.5,1.2,2.5,2.6,3.1,4.1s0.9,3,0.9,4.3c0,0.7-0.1,1.5-0.3,2.6s-0.7,2.1-1.5,3.3c-0.8,1.1-1.9,2.1-3.4,3.1
				c-1.5,0.9-3.4,1.5-5.8,1.9v0.1c0.7,0.1,1.6,0.3,2.7,0.5c1.2,0.2,2.3,0.7,3.5,1.3c1.2,0.6,2.3,1.4,3.3,2.3c1,1,1.7,2.2,2.1,3.8
				c0.3,0.9,0.4,1.9,0.5,3.1s0.2,2.3,0.3,3.6c0.1,1.2,0.1,2.4,0.2,3.5c0.1,1.1,0.2,2.1,0.3,2.8c0.3,1.2,0.6,2.2,1.2,3.2
				c0.5,0.9,1.4,1.4,2.6,1.4c0.5,0,1.1-0.1,1.7-0.3c0.6-0.2,1.1-0.6,1.6-1.1l0.6,0.7c-0.2,0.2-0.5,0.4-0.7,0.6
				c-0.3,0.2-0.6,0.4-1,0.6s-0.9,0.3-1.5,0.4s-1.4,0.2-2.2,0.2c-1.7,0-3.1-0.2-4.2-0.7c-1.1-0.5-2-1.1-2.7-2s-1.2-2-1.5-3.3
				s-0.5-2.8-0.7-4.5l-0.4-6.2c-0.2-2.3-0.6-4-1.3-5.3s-1.5-2.2-2.4-2.8c-0.9-0.6-1.8-0.9-2.8-1.1c-1-0.1-1.8-0.2-2.5-0.2h-6.1v24.5
				h7v1H46.6v-0.9H46.5z M59.8,24.8h5.8c1.2,0,2.2-0.2,3.2-0.5s1.8-0.9,2.5-1.7c0.7-0.8,1.2-1.9,1.6-3.2s0.6-3.1,0.6-5.2
				c0-2.4-0.3-4.2-0.8-5.7c-0.6-1.4-1.3-2.5-2.2-3.2s-1.9-1.2-3-1.4c-1.1-0.2-2.2-0.3-3.3-0.3c-0.8,0-1.5,0-2.3,0s-1.4,0.1-2,0.2v21
				H59.8z"/>
		</g>
		<g>
			<path class="st1" d="M98.8,50.3h7V3.9h-7V3h36v11.7h-0.7c-0.5-1.8-1.1-3.3-1.8-4.6c-0.6-1.3-1.4-2.5-2.3-3.4
				c-0.9-0.9-1.9-1.6-3.1-2.1c-1.2-0.5-2.7-0.7-4.4-0.7h-10.4v21h4.1c1.4,0,2.6-0.1,3.5-0.4c1-0.3,1.8-0.8,2.5-1.5s1.3-1.8,1.8-3.1
				c0.5-1.3,1-3,1.4-5h0.7V36h-0.7c-0.3-1.3-0.6-2.6-0.9-3.8c-0.3-1.2-0.8-2.3-1.3-3.3s-1.3-1.7-2.3-2.3c-0.9-0.6-2.2-0.8-3.7-0.8
				h-5.1v24.5H124c2.3,0,4.2-0.5,5.7-1.6s2.8-2.3,3.7-3.8c1-1.5,1.7-3,2.1-4.6c0.5-1.6,0.8-2.9,0.9-3.9h0.7v14.9H98.8V50.3z"/>
			<path class="st1" d="M147.6,50.3h7V3.9h-7V3H161l21.2,37h0.1V4h-7V3.1h14.9V4h-7v48.3h-1.3L155.5,6.8h-0.1v43.6h7v1h-14.9
				L147.6,50.3L147.6,50.3z"/>
		</g>
		<g>
			<path class="st1" d="M235.8,51.2h-1c-0.3-0.4-0.6-0.7-1-1s-1-0.4-1.8-0.4c-0.6,0-1.3,0.1-2,0.4c-0.7,0.2-1.6,0.5-2.5,0.8
				s-2,0.6-3.2,0.8c-1.2,0.2-2.5,0.4-3.9,0.4c-2.6,0-5.2-0.5-7.7-1.6c-2.5-1-4.8-2.7-7.1-5.1c-2.1-2.2-3.8-4.8-5.2-7.9
				c-1.4-3-2.1-6.5-2.1-10.5c0-3.4,0.6-6.6,1.7-9.7s2.7-5.8,4.7-8.1c2-2.4,4.4-4.2,7.1-5.6s5.7-2.1,8.9-2.1c1.3,0,2.4,0.1,3.5,0.4
				c1,0.3,1.9,0.6,2.7,0.9c0.8,0.3,1.5,0.6,2.2,0.9s1.3,0.4,1.9,0.4c0.8,0,1.4-0.1,1.8-0.4s0.7-0.6,1-1h0.9v13.6H234
				c-0.4-1.7-0.9-3.4-1.4-5.1c-0.6-1.7-1.4-3.2-2.4-4.4c-1-1.3-2.4-2.3-4-3.1c-1.6-0.8-3.6-1.2-6-1.2c-2.2,0-4.1,0.4-5.7,1.1
				s-2.9,1.7-4,3c-1.1,1.2-2,2.7-2.6,4.3c-0.6,1.7-1.1,3.4-1.5,5.2c-0.3,1.8-0.6,3.7-0.7,5.6s-0.2,3.7-0.2,5.3
				c0,4.7,0.4,8.7,1.1,11.8c0.7,3.1,1.7,5.6,3,7.4s2.8,3.1,4.6,3.8c1.8,0.7,3.8,1.1,6,1.1c2.8,0,5.1-0.4,6.8-1.3
				c1.7-0.9,3.1-2,4.1-3.4s1.8-2.9,2.4-4.7c0.5-1.7,1-3.5,1.4-5.2h0.7v14.6H235.8z"/>
			<path class="st1" d="M246.1,50.3h7V3.9h-7V3h20.2v0.9h-7v22.2h20.9V3.9h-7V3h20.2v0.9h-7v46.4h7v1h-20.2v-1h7V27h-20.9v23.3h7v1
				h-20.2V50.3z"/>
		</g>
		<g>
			<path class="st1" d="M333.6,50.3h7V3.9H337c-0.8,0-1.8,0.1-2.8,0.2c-1,0.2-2.1,0.6-3.2,1.3c-1.1,0.7-2.1,1.9-3.1,3.4
				c-1,1.6-1.8,3.7-2.5,6.5h-0.7V2.9h38.1v12.4h-0.7c-0.7-2.8-1.6-4.9-2.5-6.5c-0.9-1.6-2-2.7-3.1-3.4c-1.1-0.7-2.1-1.2-3.2-1.3
				c-1-0.2-2-0.2-2.8-0.2h-3.6v46.4h7v1h-20.2L333.6,50.3L333.6,50.3z"/>
			<path class="st1" d="M367,50.3h5.5l17-48.6h1.5l17.1,48.6h5.6v1h-19.3v-1h7l-6.6-18.9h-14.6l-6.6,18.9h7v1h-13.5v-1H367z
				 M387.4,10.7l-6.9,19.7h13.8L387.4,10.7z"/>
		</g>
		<g>
			<path class="st1" d="M422.5,50.3h7V3.9h-7V3h11c0.6,0,1.3,0,1.9,0c0.6,0,1.3-0.1,2-0.1c0.7,0,1.3,0,1.9,0c0.6,0,1.2,0,1.8,0
				c3.1,0,5.6,0.4,7.5,1.2c2,0.8,3.5,1.8,4.6,2.9c1.1,1.2,1.9,2.4,2.3,3.7c0.4,1.3,0.6,2.5,0.6,3.6c0,1.5-0.3,2.9-0.9,4.1
				c-0.6,1.3-1.4,2.4-2.5,3.3c-1,0.9-2.2,1.7-3.5,2.3c-1.3,0.6-2.7,1-4.2,1.2v0.1c1.5,0.1,3,0.5,4.6,1.1s3,1.4,4.3,2.4
				s2.3,2.3,3.1,3.8s1.2,3.2,1.2,5.2s-0.4,3.9-1.1,5.6c-0.7,1.7-1.8,3.2-3.2,4.4c-1.4,1.2-3.2,2.2-5.4,2.9c-2.2,0.7-4.7,1.1-7.6,1.1
				c-0.6,0-1.2,0-1.7,0c-0.6,0-1.2-0.1-1.8-0.1s-1.3-0.1-1.9-0.1c-0.7,0-1.4,0-2.1,0h-11v-1.3H422.5z M435.7,24.8h5.8
				c1.2,0,2.2-0.2,3.2-0.5s1.8-0.9,2.5-1.7c0.7-0.8,1.2-1.9,1.6-3.2s0.6-3.1,0.6-5.2c0-2.4-0.3-4.2-0.8-5.7
				c-0.6-1.4-1.3-2.5-2.2-3.2s-1.9-1.2-3-1.4c-1.1-0.2-2.2-0.3-3.3-0.3c-0.8,0-1.5,0-2.3,0s-1.4,0.1-2,0.2L435.7,24.8L435.7,24.8z
				 M435.7,50.3c0.5,0,1.1,0.1,1.7,0.2s1.5,0.1,2.6,0.1c2,0,3.7-0.2,5.1-0.6s2.6-1.1,3.5-2.1s1.6-2.4,2-4c0.4-1.7,0.6-3.8,0.6-6.3
				c0-3.6-0.7-6.5-2.1-8.5c-1.4-2.1-3.5-3.1-6.3-3.1h-6.9v24.3H435.7z"/>
			<path class="st1" d="M466.9,50.3h7V3.9h-7V3h20.2v0.9h-7v46.4h11.2c3.7,0,6.6-1.2,8.7-3.7s3.6-5.9,4.6-10.2h0.7v14.9h-38.4V50.3z
				"/>
		</g>
		<g>
			<path class="st1" d="M515.4,50.3h7V3.9h-7V3h35.9v11.7h-0.7c-0.5-1.8-1.1-3.3-1.8-4.6c-0.6-1.3-1.4-2.5-2.3-3.4
				c-0.9-0.9-1.9-1.6-3.1-2.1c-1.2-0.5-2.7-0.7-4.4-0.7h-10.4v21h4.1c1.4,0,2.6-0.1,3.5-0.4c1-0.3,1.8-0.8,2.5-1.5s1.3-1.8,1.8-3.1
				c0.5-1.3,1-3,1.4-5h0.7V36h-0.7c-0.3-1.3-0.6-2.6-0.9-3.8c-0.3-1.2-0.8-2.3-1.3-3.3c-0.6-0.9-1.3-1.7-2.3-2.3
				c-0.9-0.6-2.2-0.8-3.7-0.8h-5.1v24.5h11.9c2.3,0,4.2-0.5,5.7-1.6s2.8-2.3,3.7-3.8s1.7-3,2.1-4.6c0.5-1.6,0.8-2.9,0.9-3.9h0.7
				v14.9h-38.3L515.4,50.3L515.4,50.3z"/>
			<path class="st1" d="M566.9,36.6h0.7c0.5,2.4,1.1,4.5,1.8,6.2s1.5,3.1,2.4,4.1c0.9,1.1,1.8,1.9,2.8,2.5s1.9,1,2.9,1.3
				s1.9,0.4,2.8,0.5s1.7,0.1,2.5,0.1c2.2,0,4-0.4,5.5-1.1c1.4-0.7,2.6-1.6,3.4-2.7c0.8-1.1,1.4-2.3,1.8-3.6c0.3-1.3,0.5-2.5,0.5-3.6
				c0-1.6-0.3-2.9-0.8-4.1c-0.5-1.1-1.2-2.1-2.1-2.9c-0.8-0.8-1.8-1.4-2.7-1.9c-1-0.5-1.9-0.9-2.8-1.2l-7.2-2.4
				c-3.4-1.1-6-2.6-7.7-4.5s-2.6-4.3-2.6-7.5c0-2,0.3-3.9,1-5.7c0.7-1.7,1.6-3.2,2.8-4.5s2.7-2.3,4.4-3s3.6-1.1,5.6-1.1
				c1.5,0,2.7,0.1,3.7,0.4s1.8,0.6,2.5,0.9s1.3,0.6,1.9,0.9c0.6,0.3,1.1,0.4,1.7,0.4c0.5,0,0.9-0.1,1.1-0.2c0.2-0.2,0.4-0.6,0.8-1.2
				h0.9V15h-0.8c-0.2-1.6-0.7-3.2-1.3-4.7s-1.4-2.8-2.4-4s-2.1-2.1-3.5-2.8c-1.4-0.7-2.9-1.1-4.7-1.1c-1,0-2.1,0.1-3.3,0.4
				s-2.3,0.8-3.4,1.5c-1,0.7-1.9,1.7-2.6,2.8c-0.7,1.2-1,2.7-1,4.5c0,1.4,0.3,2.7,0.8,3.7s1.2,1.9,2.1,2.6c0.9,0.7,1.8,1.3,2.9,1.8
				c1.1,0.5,2.1,0.9,3.2,1.3l7.6,2.6c0.8,0.3,1.8,0.6,3,1.1s2.4,1.1,3.5,2c1.2,0.9,2.1,2.1,3,3.6c0.8,1.5,1.2,3.4,1.2,5.7
				c0,2.1-0.4,4.1-1.1,6.1c-0.7,1.9-1.8,3.6-3.2,5.1s-3.1,2.6-5,3.5c-2,0.9-4.2,1.3-6.7,1.3c-0.9,0-1.7,0-2.3,0
				c-0.7,0-1.3-0.1-1.9-0.2c-0.6-0.1-1.2-0.2-1.8-0.3c-0.6-0.1-1.2-0.3-1.9-0.5c-0.8-0.3-1.7-0.6-2.7-1s-1.8-0.5-2.5-0.5
				c-0.6,0-1.1,0.1-1.3,0.4s-0.4,0.6-0.6,1.1h-0.9L566.9,36.6L566.9,36.6z"/>
		</g>
	</g>
</g>
</svg>
