<?xml version="1.0" encoding="utf-8"?>
<!-- Generator: Adobe Illustrator 22.1.0, SVG Export Plug-In . SVG Version: 6.00 Build 0)  -->
<svg version="1.1" id="Layer_1" xmlns="http://www.w3.org/2000/svg" xmlns:xlink="http://www.w3.org/1999/xlink" x="0px" y="0px"
	 viewBox="0 0 750 200" style="enable-background:new 0 0 750 200;" xml:space="preserve">
<style type="text/css">
	.st0{fill:#010101;}
	.st1{fill:none;stroke:#010101;stroke-width:0.5005;stroke-miterlimit:3.5312;}
</style>
<g>
	<g>
		<path class="st0" d="M76.1,123.7h7V77.3h-7v-0.9h35.9v11.7h-0.7c-0.5-1.8-1.1-3.3-1.8-4.6c-0.6-1.3-1.4-2.5-2.3-3.4
			c-0.9-0.9-1.9-1.6-3.1-2.1c-1.2-0.5-2.7-0.7-4.4-0.7H89.4v22h4.1c1.4,0,2.6-0.1,3.5-0.4c1-0.3,1.8-0.8,2.5-1.5
			c0.7-0.7,1.3-1.8,1.8-3.1c0.5-1.3,1-3,1.4-5h0.7v21.1h-0.7c-0.3-1.3-0.6-2.6-0.9-3.8c-0.3-1.2-0.8-2.3-1.3-3.3s-1.3-1.7-2.3-2.3
			c-0.9-0.6-2.2-0.8-3.7-0.8h-5.1v23.5h7v1H76.1V123.7z"/>
		<path class="st0" d="M122.7,123.7h7V77.3h-7v-0.9h11.9c0.5,0,1,0,1.5,0c0.5,0,1-0.1,1.5-0.1c0.5,0,1,0,1.5,0c0.5,0,1,0,1.5,0
			c2.5,0,4.6,0.1,6.5,0.4c1.9,0.3,3.6,1.1,5.3,2.5c1.5,1.2,2.5,2.6,3.1,4.1c0.6,1.5,0.9,3,0.9,4.3c0,0.7-0.1,1.5-0.3,2.6
			c-0.2,1.1-0.7,2.1-1.5,3.3c-0.8,1.1-1.9,2.1-3.4,3.1c-1.5,0.9-3.4,1.5-5.8,1.9v0.1c0.7,0.1,1.6,0.3,2.7,0.5
			c1.2,0.2,2.3,0.7,3.5,1.3c1.2,0.6,2.3,1.4,3.3,2.3c1,1,1.7,2.2,2.1,3.8c0.3,0.9,0.4,1.9,0.5,3.1c0.1,1.2,0.2,2.3,0.3,3.6
			c0.1,1.2,0.1,2.4,0.2,3.5c0.1,1.1,0.2,2.1,0.3,2.8c0.3,1.2,0.6,2.2,1.2,3.2c0.5,0.9,1.4,1.4,2.6,1.4c0.5,0,1.1-0.1,1.7-0.3
			c0.6-0.2,1.1-0.6,1.6-1.1l0.6,0.7c-0.2,0.2-0.5,0.4-0.7,0.6c-0.3,0.2-0.6,0.4-1,0.6c-0.4,0.2-0.9,0.3-1.5,0.4
			c-0.6,0.1-1.4,0.2-2.2,0.2c-1.7,0-3.1-0.2-4.2-0.7c-1.1-0.5-2-1.1-2.7-2c-0.7-0.9-1.2-2-1.5-3.3c-0.3-1.3-0.5-2.8-0.7-4.5
			l-0.4-6.2c-0.2-2.3-0.6-4-1.3-5.3c-0.7-1.3-1.5-2.2-2.4-2.8c-0.9-0.6-1.8-0.9-2.8-1.1c-1-0.1-1.8-0.2-2.5-0.2H136v24.5h7v1h-20.2
			V123.7z M136,98.2h5.8c1.2,0,2.2-0.2,3.2-0.5c1-0.3,1.8-0.9,2.5-1.7c0.7-0.8,1.2-1.9,1.6-3.2s0.6-3.1,0.6-5.2
			c0-2.4-0.3-4.2-0.8-5.7c-0.6-1.4-1.3-2.5-2.2-3.2c-0.9-0.7-1.9-1.2-3-1.4c-1.1-0.2-2.2-0.3-3.3-0.3c-0.8,0-1.5,0-2.3,0
			c-0.8,0-1.4,0.1-2,0.2V98.2z"/>
	</g>
	<g>
		<path class="st0" d="M175,123.7h7V77.3h-7v-0.9H211v11.7h-0.7c-0.5-1.8-1.1-3.3-1.8-4.6c-0.6-1.3-1.4-2.5-2.3-3.4
			c-0.9-0.9-1.9-1.6-3.1-2.1c-1.2-0.5-2.7-0.7-4.4-0.7h-10.4v21h4.1c1.4,0,2.6-0.1,3.5-0.4c1-0.3,1.8-0.8,2.5-1.5
			c0.7-0.7,1.3-1.8,1.8-3.1c0.5-1.3,1-3,1.4-5h0.7v21.1h-0.7c-0.3-1.3-0.6-2.6-0.9-3.8c-0.3-1.2-0.8-2.3-1.3-3.3s-1.3-1.7-2.3-2.3
			c-0.9-0.6-2.2-0.8-3.7-0.8h-5.1v24.5h11.9c2.3,0,4.2-0.5,5.7-1.6c1.5-1.1,2.8-2.3,3.7-3.8c1-1.5,1.7-3,2.1-4.6
			c0.5-1.6,0.8-2.9,0.9-3.9h0.7v14.9H175V123.7z"/>
		<path class="st0" d="M223.8,123.7h7V77.3h-7v-0.9h13.4l21.2,37h0.1v-36h-7v-0.9h14.9v0.9h-7v48.3h-1.3l-26.4-45.5h-0.1v43.6h7v1
			h-14.9V123.7z"/>
	</g>
	<g>
		<path class="st0" d="M312,124.6H311c-0.3-0.4-0.6-0.7-1-1s-1-0.4-1.8-0.4c-0.6,0-1.3,0.1-2,0.4c-0.7,0.2-1.6,0.5-2.5,0.8
			c-0.9,0.3-2,0.6-3.2,0.8c-1.2,0.2-2.5,0.4-3.9,0.4c-2.6,0-5.2-0.5-7.7-1.6c-2.5-1-4.8-2.7-7.1-5.1c-2.1-2.2-3.8-4.8-5.2-7.9
			c-1.4-3-2.1-6.5-2.1-10.5c0-3.4,0.6-6.6,1.7-9.7c1.1-3.1,2.7-5.8,4.7-8.1c2-2.4,4.4-4.2,7.1-5.6c2.7-1.4,5.7-2.1,8.9-2.1
			c1.3,0,2.4,0.1,3.5,0.4c1,0.3,1.9,0.6,2.7,0.9c0.8,0.3,1.5,0.6,2.2,0.9c0.7,0.3,1.3,0.4,1.9,0.4c0.8,0,1.4-0.1,1.8-0.4
			c0.4-0.3,0.7-0.6,1-1h0.9v13.6h-0.7c-0.4-1.7-0.9-3.4-1.4-5.1c-0.6-1.7-1.4-3.2-2.4-4.4c-1-1.3-2.4-2.3-4-3.1
			c-1.6-0.8-3.6-1.2-6-1.2c-2.2,0-4.1,0.4-5.7,1.1c-1.6,0.7-2.9,1.7-4,3c-1.1,1.2-2,2.7-2.6,4.3c-0.6,1.7-1.1,3.4-1.5,5.2
			c-0.3,1.8-0.6,3.7-0.7,5.6c-0.1,1.9-0.2,3.7-0.2,5.3c0,4.7,0.4,8.7,1.1,11.8c0.7,3.1,1.7,5.6,3,7.4c1.3,1.8,2.8,3.1,4.6,3.8
			c1.8,0.7,3.8,1.1,6,1.1c2.8,0,5.1-0.4,6.8-1.3c1.7-0.9,3.1-2,4.1-3.4c1-1.4,1.8-2.9,2.4-4.7c0.5-1.7,1-3.5,1.4-5.2h0.7V124.6z"/>
		<path class="st0" d="M322.3,123.7h7V77.3h-7v-0.9h20.2v0.9h-7v22.2h20.9V77.3h-7v-0.9h20.2v0.9h-7v46.4h7v1h-20.2v-1h7v-23.3
			h-20.9v23.3h7v1h-20.2V123.7z"/>
	</g>
	<g>
		<path class="st0" d="M409.8,123.7h7V77.3h-3.6c-0.8,0-1.8,0.1-2.8,0.2c-1,0.2-2.1,0.6-3.2,1.3c-1.1,0.7-2.1,1.9-3.1,3.4
			c-1,1.6-1.8,3.7-2.5,6.5h-0.7V76.3H439v12.4h-0.7c-0.7-2.8-1.6-4.9-2.5-6.5s-2-2.7-3.1-3.4c-1.1-0.7-2.1-1.2-3.2-1.3
			c-1-0.2-2-0.2-2.8-0.2h-3.6v46.4h7v1h-20.2V123.7z"/>
		<path class="st0" d="M443.2,123.7h5.5l17-48.6h1.5l17.1,48.6h5.6v1h-19.3v-1h7l-6.6-18.9h-14.6l-6.6,18.9h7v1h-13.5V123.7z
			 M463.6,84.1l-6.9,19.7h13.8L463.6,84.1z"/>
	</g>
	<g>
		<path class="st0" d="M498.7,123.7h7V77.3h-7v-0.9h11c0.6,0,1.3,0,1.9,0c0.6,0,1.3-0.1,2-0.1c0.7,0,1.3,0,1.9,0c0.6,0,1.2,0,1.8,0
			c3.1,0,5.6,0.4,7.5,1.2c2,0.8,3.5,1.8,4.6,2.9c1.1,1.2,1.9,2.4,2.3,3.7c0.4,1.3,0.6,2.5,0.6,3.6c0,1.5-0.3,2.9-0.9,4.1
			c-0.6,1.3-1.4,2.4-2.5,3.3c-1,0.9-2.2,1.7-3.5,2.3c-1.3,0.6-2.7,1-4.2,1.2v0.1c1.5,0.1,3,0.5,4.6,1.1c1.6,0.6,3,1.4,4.3,2.4
			s2.3,2.3,3.1,3.8c0.8,1.5,1.2,3.2,1.2,5.2c0,2-0.4,3.9-1.1,5.6c-0.7,1.7-1.8,3.2-3.2,4.4c-1.4,1.2-3.2,2.2-5.4,2.9
			c-2.2,0.7-4.7,1.1-7.6,1.1c-0.6,0-1.2,0-1.7,0c-0.6,0-1.2-0.1-1.8-0.1c-0.6,0-1.3-0.1-1.9-0.1c-0.7,0-1.4,0-2.1,0h-11V123.7z
			 M511.9,98.2h5.8c1.2,0,2.2-0.2,3.2-0.5c1-0.3,1.8-0.9,2.5-1.7c0.7-0.8,1.2-1.9,1.6-3.2s0.6-3.1,0.6-5.2c0-2.4-0.3-4.2-0.8-5.7
			c-0.6-1.4-1.3-2.5-2.2-3.2c-0.9-0.7-1.9-1.2-3-1.4c-1.1-0.2-2.2-0.3-3.3-0.3c-0.8,0-1.5,0-2.3,0c-0.8,0-1.4,0.1-2,0.2V98.2z
			 M511.9,123.7c0.5,0,1.1,0.1,1.7,0.2c0.6,0.1,1.5,0.1,2.6,0.1c2,0,3.7-0.2,5.1-0.6s2.6-1.1,3.5-2.1s1.6-2.4,2-4
			c0.4-1.7,0.6-3.8,0.6-6.3c0-3.6-0.7-6.5-2.1-8.5c-1.4-2.1-3.5-3.1-6.3-3.1h-6.9V123.7z"/>
		<path class="st0" d="M543.1,123.7h7V77.3h-7v-0.9h20.2v0.9h-7v46.4h11.2c3.7,0,6.6-1.2,8.7-3.7s3.6-5.9,4.6-10.2h0.7v14.9h-38.4
			V123.7z"/>
	</g>
	<g>
		<path class="st0" d="M591.6,123.7h7V77.3h-7v-0.9h35.9v11.7h-0.7c-0.5-1.8-1.1-3.3-1.8-4.6c-0.6-1.3-1.4-2.5-2.3-3.4
			c-0.9-0.9-1.9-1.6-3.1-2.1c-1.2-0.5-2.7-0.7-4.4-0.7h-10.4v21h4.1c1.4,0,2.6-0.1,3.5-0.4c1-0.3,1.8-0.8,2.5-1.5
			c0.7-0.7,1.3-1.8,1.8-3.1c0.5-1.3,1-3,1.4-5h0.7v21.1h-0.7c-0.3-1.3-0.6-2.6-0.9-3.8c-0.3-1.2-0.8-2.3-1.3-3.3
			c-0.6-0.9-1.3-1.7-2.3-2.3c-0.9-0.6-2.2-0.8-3.7-0.8h-5.1v24.5h11.9c2.3,0,4.2-0.5,5.7-1.6c1.5-1.1,2.8-2.3,3.7-3.8s1.7-3,2.1-4.6
			c0.5-1.6,0.8-2.9,0.9-3.9h0.7v14.9h-38.3V123.7z"/>
		<path class="st0" d="M643.1,110h0.7c0.5,2.4,1.1,4.5,1.8,6.2c0.7,1.7,1.5,3.1,2.4,4.1c0.9,1.1,1.8,1.9,2.8,2.5s1.9,1,2.9,1.3
			c1,0.3,1.9,0.4,2.8,0.5s1.7,0.1,2.5,0.1c2.2,0,4-0.4,5.5-1.1c1.4-0.7,2.6-1.6,3.4-2.7c0.8-1.1,1.4-2.3,1.8-3.6
			c0.3-1.3,0.5-2.5,0.5-3.6c0-1.6-0.3-2.9-0.8-4.1c-0.5-1.1-1.2-2.1-2.1-2.9c-0.8-0.8-1.8-1.4-2.7-1.9c-1-0.5-1.9-0.9-2.8-1.2
			l-7.2-2.4c-3.4-1.1-6-2.6-7.7-4.5c-1.7-1.9-2.6-4.3-2.6-7.5c0-2,0.3-3.9,1-5.7c0.7-1.7,1.6-3.2,2.8-4.5c1.2-1.3,2.7-2.3,4.4-3
			c1.7-0.7,3.6-1.1,5.6-1.1c1.5,0,2.7,0.1,3.7,0.4c1,0.3,1.8,0.6,2.5,0.9c0.7,0.3,1.3,0.6,1.9,0.9c0.6,0.3,1.1,0.4,1.7,0.4
			c0.5,0,0.9-0.1,1.1-0.2c0.2-0.2,0.4-0.6,0.8-1.2h0.9v12.3h-0.8c-0.2-1.6-0.7-3.2-1.3-4.7c-0.6-1.5-1.4-2.8-2.4-4
			c-1-1.2-2.1-2.1-3.5-2.8c-1.4-0.7-2.9-1.1-4.7-1.1c-1,0-2.1,0.1-3.3,0.4c-1.2,0.3-2.3,0.8-3.4,1.5c-1,0.7-1.9,1.7-2.6,2.8
			c-0.7,1.2-1,2.7-1,4.5c0,1.4,0.3,2.7,0.8,3.7s1.2,1.9,2.1,2.6c0.9,0.7,1.8,1.3,2.9,1.8c1.1,0.5,2.1,0.9,3.2,1.3l7.6,2.6
			c0.8,0.3,1.8,0.6,3,1.1c1.2,0.5,2.4,1.1,3.5,2c1.2,0.9,2.1,2.1,3,3.6c0.8,1.5,1.2,3.4,1.2,5.7c0,2.1-0.4,4.1-1.1,6.1
			c-0.7,1.9-1.8,3.6-3.2,5.1c-1.4,1.5-3.1,2.6-5,3.5c-2,0.9-4.2,1.3-6.7,1.3c-0.9,0-1.7,0-2.3,0c-0.7,0-1.3-0.1-1.9-0.2
			c-0.6-0.1-1.2-0.2-1.8-0.3c-0.6-0.1-1.2-0.3-1.9-0.5c-0.8-0.3-1.7-0.6-2.7-1c-1-0.4-1.8-0.5-2.5-0.5c-0.6,0-1.1,0.1-1.3,0.4
			c-0.2,0.3-0.4,0.6-0.6,1.1h-0.9V110z"/>
	</g>
	<g>
		<g>
			<path class="st1" d="M76.1,123.7h7V77.3h-7v-0.9h35.9v11.7h-0.7c-0.5-1.8-1.1-3.3-1.8-4.6c-0.6-1.3-1.4-2.5-2.3-3.4
				c-0.9-0.9-1.9-1.6-3.1-2.1c-1.2-0.5-2.7-0.7-4.4-0.7H89.4v22h4.1c1.4,0,2.6-0.1,3.5-0.4c1-0.3,1.8-0.8,2.5-1.5
				c0.7-0.7,1.3-1.8,1.8-3.1c0.5-1.3,1-3,1.4-5h0.7v21.1h-0.7c-0.3-1.3-0.6-2.6-0.9-3.8c-0.3-1.2-0.8-2.3-1.3-3.3s-1.3-1.7-2.3-2.3
				c-0.9-0.6-2.2-0.8-3.7-0.8h-5.1v23.5h7v1H76.1V123.7z"/>
			<path class="st1" d="M122.7,123.7h7V77.3h-7v-0.9h11.9c0.5,0,1,0,1.5,0c0.5,0,1-0.1,1.5-0.1c0.5,0,1,0,1.5,0c0.5,0,1,0,1.5,0
				c2.5,0,4.6,0.1,6.5,0.4c1.9,0.3,3.6,1.1,5.3,2.5c1.5,1.2,2.5,2.6,3.1,4.1c0.6,1.5,0.9,3,0.9,4.3c0,0.7-0.1,1.5-0.3,2.6
				c-0.2,1.1-0.7,2.1-1.5,3.3c-0.8,1.1-1.9,2.1-3.4,3.1c-1.5,0.9-3.4,1.5-5.8,1.9v0.1c0.7,0.1,1.6,0.3,2.7,0.5
				c1.2,0.2,2.3,0.7,3.5,1.3c1.2,0.6,2.3,1.4,3.3,2.3c1,1,1.7,2.2,2.1,3.8c0.3,0.9,0.4,1.9,0.5,3.1c0.1,1.2,0.2,2.3,0.3,3.6
				c0.1,1.2,0.1,2.4,0.2,3.5c0.1,1.1,0.2,2.1,0.3,2.8c0.3,1.2,0.6,2.2,1.2,3.2c0.5,0.9,1.4,1.4,2.6,1.4c0.5,0,1.1-0.1,1.7-0.3
				c0.6-0.2,1.1-0.6,1.6-1.1l0.6,0.7c-0.2,0.2-0.5,0.4-0.7,0.6c-0.3,0.2-0.6,0.4-1,0.6c-0.4,0.2-0.9,0.3-1.5,0.4
				c-0.6,0.1-1.4,0.2-2.2,0.2c-1.7,0-3.1-0.2-4.2-0.7c-1.1-0.5-2-1.1-2.7-2c-0.7-0.9-1.2-2-1.5-3.3c-0.3-1.3-0.5-2.8-0.7-4.5
				l-0.4-6.2c-0.2-2.3-0.6-4-1.3-5.3c-0.7-1.3-1.5-2.2-2.4-2.8c-0.9-0.6-1.8-0.9-2.8-1.1c-1-0.1-1.8-0.2-2.5-0.2H136v24.5h7v1h-20.2
				V123.7z M136,98.2h5.8c1.2,0,2.2-0.2,3.2-0.5c1-0.3,1.8-0.9,2.5-1.7c0.7-0.8,1.2-1.9,1.6-3.2s0.6-3.1,0.6-5.2
				c0-2.4-0.3-4.2-0.8-5.7c-0.6-1.4-1.3-2.5-2.2-3.2c-0.9-0.7-1.9-1.2-3-1.4c-1.1-0.2-2.2-0.3-3.3-0.3c-0.8,0-1.5,0-2.3,0
				c-0.8,0-1.4,0.1-2,0.2V98.2z"/>
		</g>
		<g>
			<path class="st1" d="M175,123.7h7V77.3h-7v-0.9H211v11.7h-0.7c-0.5-1.8-1.1-3.3-1.8-4.6c-0.6-1.3-1.4-2.5-2.3-3.4
				c-0.9-0.9-1.9-1.6-3.1-2.1c-1.2-0.5-2.7-0.7-4.4-0.7h-10.4v21h4.1c1.4,0,2.6-0.1,3.5-0.4c1-0.3,1.8-0.8,2.5-1.5
				c0.7-0.7,1.3-1.8,1.8-3.1c0.5-1.3,1-3,1.4-5h0.7v21.1h-0.7c-0.3-1.3-0.6-2.6-0.9-3.8c-0.3-1.2-0.8-2.3-1.3-3.3s-1.3-1.7-2.3-2.3
				c-0.9-0.6-2.2-0.8-3.7-0.8h-5.1v24.5h11.9c2.3,0,4.2-0.5,5.7-1.6c1.5-1.1,2.8-2.3,3.7-3.8c1-1.5,1.7-3,2.1-4.6
				c0.5-1.6,0.8-2.9,0.9-3.9h0.7v14.9H175V123.7z"/>
			<path class="st1" d="M223.8,123.7h7V77.3h-7v-0.9h13.4l21.2,37h0.1v-36h-7v-0.9h14.9v0.9h-7v48.3h-1.3l-26.4-45.5h-0.1v43.6h7v1
				h-14.9V123.7z"/>
		</g>
		<g>
			<path class="st1" d="M312,124.6H311c-0.3-0.4-0.6-0.7-1-1s-1-0.4-1.8-0.4c-0.6,0-1.3,0.1-2,0.4c-0.7,0.2-1.6,0.5-2.5,0.8
				c-0.9,0.3-2,0.6-3.2,0.8c-1.2,0.2-2.5,0.4-3.9,0.4c-2.6,0-5.2-0.5-7.7-1.6c-2.5-1-4.8-2.7-7.1-5.1c-2.1-2.2-3.8-4.8-5.2-7.9
				c-1.4-3-2.1-6.5-2.1-10.5c0-3.4,0.6-6.6,1.7-9.7c1.1-3.1,2.7-5.8,4.7-8.1c2-2.4,4.4-4.2,7.1-5.6c2.7-1.4,5.7-2.1,8.9-2.1
				c1.3,0,2.4,0.1,3.5,0.4c1,0.3,1.9,0.6,2.7,0.9c0.8,0.3,1.5,0.6,2.2,0.9c0.7,0.3,1.3,0.4,1.9,0.4c0.8,0,1.4-0.1,1.8-0.4
				c0.4-0.3,0.7-0.6,1-1h0.9v13.6h-0.7c-0.4-1.7-0.9-3.4-1.4-5.1c-0.6-1.7-1.4-3.2-2.4-4.4c-1-1.3-2.4-2.3-4-3.1
				c-1.6-0.8-3.6-1.2-6-1.2c-2.2,0-4.1,0.4-5.7,1.1c-1.6,0.7-2.9,1.7-4,3c-1.1,1.2-2,2.7-2.6,4.3c-0.6,1.7-1.1,3.4-1.5,5.2
				c-0.3,1.8-0.6,3.7-0.7,5.6c-0.1,1.9-0.2,3.7-0.2,5.3c0,4.7,0.4,8.7,1.1,11.8c0.7,3.1,1.7,5.6,3,7.4c1.3,1.8,2.8,3.1,4.6,3.8
				c1.8,0.7,3.8,1.1,6,1.1c2.8,0,5.1-0.4,6.8-1.3c1.7-0.9,3.1-2,4.1-3.4c1-1.4,1.8-2.9,2.4-4.7c0.5-1.7,1-3.5,1.4-5.2h0.7V124.6z"/>
			<path class="st1" d="M322.3,123.7h7V77.3h-7v-0.9h20.2v0.9h-7v22.2h20.9V77.3h-7v-0.9h20.2v0.9h-7v46.4h7v1h-20.2v-1h7v-23.3
				h-20.9v23.3h7v1h-20.2V123.7z"/>
		</g>
		<g>
			<path class="st1" d="M409.8,123.7h7V77.3h-3.6c-0.8,0-1.8,0.1-2.8,0.2c-1,0.2-2.1,0.6-3.2,1.3c-1.1,0.7-2.1,1.9-3.1,3.4
				c-1,1.6-1.8,3.7-2.5,6.5h-0.7V76.3H439v12.4h-0.7c-0.7-2.8-1.6-4.9-2.5-6.5s-2-2.7-3.1-3.4c-1.1-0.7-2.1-1.2-3.2-1.3
				c-1-0.2-2-0.2-2.8-0.2h-3.6v46.4h7v1h-20.2V123.7z"/>
			<path class="st1" d="M443.2,123.7h5.5l17-48.6h1.5l17.1,48.6h5.6v1h-19.3v-1h7l-6.6-18.9h-14.6l-6.6,18.9h7v1h-13.5V123.7z
				 M463.6,84.1l-6.9,19.7h13.8L463.6,84.1z"/>
		</g>
		<g>
			<path class="st1" d="M498.7,123.7h7V77.3h-7v-0.9h11c0.6,0,1.3,0,1.9,0c0.6,0,1.3-0.1,2-0.1c0.7,0,1.3,0,1.9,0c0.6,0,1.2,0,1.8,0
				c3.1,0,5.6,0.4,7.5,1.2c2,0.8,3.5,1.8,4.6,2.9c1.1,1.2,1.9,2.4,2.3,3.7c0.4,1.3,0.6,2.5,0.6,3.6c0,1.5-0.3,2.9-0.9,4.1
				c-0.6,1.3-1.4,2.4-2.5,3.3c-1,0.9-2.2,1.7-3.5,2.3c-1.3,0.6-2.7,1-4.2,1.2v0.1c1.5,0.1,3,0.5,4.6,1.1c1.6,0.6,3,1.4,4.3,2.4
				s2.3,2.3,3.1,3.8c0.8,1.5,1.2,3.2,1.2,5.2c0,2-0.4,3.9-1.1,5.6c-0.7,1.7-1.8,3.2-3.2,4.4c-1.4,1.2-3.2,2.2-5.4,2.9
				c-2.2,0.7-4.7,1.1-7.6,1.1c-0.6,0-1.2,0-1.7,0c-0.6,0-1.2-0.1-1.8-0.1c-0.6,0-1.3-0.1-1.9-0.1c-0.7,0-1.4,0-2.1,0h-11V123.7z
				 M511.9,98.2h5.8c1.2,0,2.2-0.2,3.2-0.5c1-0.3,1.8-0.9,2.5-1.7c0.7-0.8,1.2-1.9,1.6-3.2s0.6-3.1,0.6-5.2c0-2.4-0.3-4.2-0.8-5.7
				c-0.6-1.4-1.3-2.5-2.2-3.2c-0.9-0.7-1.9-1.2-3-1.4c-1.1-0.2-2.2-0.3-3.3-0.3c-0.8,0-1.5,0-2.3,0c-0.8,0-1.4,0.1-2,0.2V98.2z
				 M511.9,123.7c0.5,0,1.1,0.1,1.7,0.2c0.6,0.1,1.5,0.1,2.6,0.1c2,0,3.7-0.2,5.1-0.6s2.6-1.1,3.5-2.1s1.6-2.4,2-4
				c0.4-1.7,0.6-3.8,0.6-6.3c0-3.6-0.7-6.5-2.1-8.5c-1.4-2.1-3.5-3.1-6.3-3.1h-6.9V123.7z"/>
			<path class="st1" d="M543.1,123.7h7V77.3h-7v-0.9h20.2v0.9h-7v46.4h11.2c3.7,0,6.6-1.2,8.7-3.7s3.6-5.9,4.6-10.2h0.7v14.9h-38.4
				V123.7z"/>
		</g>
		<g>
			<path class="st1" d="M591.6,123.7h7V77.3h-7v-0.9h35.9v11.7h-0.7c-0.5-1.8-1.1-3.3-1.8-4.6c-0.6-1.3-1.4-2.5-2.3-3.4
				c-0.9-0.9-1.9-1.6-3.1-2.1c-1.2-0.5-2.7-0.7-4.4-0.7h-10.4v21h4.1c1.4,0,2.6-0.1,3.5-0.4c1-0.3,1.8-0.8,2.5-1.5
				c0.7-0.7,1.3-1.8,1.8-3.1c0.5-1.3,1-3,1.4-5h0.7v21.1h-0.7c-0.3-1.3-0.6-2.6-0.9-3.8c-0.3-1.2-0.8-2.3-1.3-3.3
				c-0.6-0.9-1.3-1.7-2.3-2.3c-0.9-0.6-2.2-0.8-3.7-0.8h-5.1v24.5h11.9c2.3,0,4.2-0.5,5.7-1.6c1.5-1.1,2.8-2.3,3.7-3.8
				s1.7-3,2.1-4.6c0.5-1.6,0.8-2.9,0.9-3.9h0.7v14.9h-38.3V123.7z"/>
			<path class="st1" d="M643.1,110h0.7c0.5,2.4,1.1,4.5,1.8,6.2c0.7,1.7,1.5,3.1,2.4,4.1c0.9,1.1,1.8,1.9,2.8,2.5s1.9,1,2.9,1.3
				c1,0.3,1.9,0.4,2.8,0.5s1.7,0.1,2.5,0.1c2.2,0,4-0.4,5.5-1.1c1.4-0.7,2.6-1.6,3.4-2.7c0.8-1.1,1.4-2.3,1.8-3.6
				c0.3-1.3,0.5-2.5,0.5-3.6c0-1.6-0.3-2.9-0.8-4.1c-0.5-1.1-1.2-2.1-2.1-2.9c-0.8-0.8-1.8-1.4-2.7-1.9c-1-0.5-1.9-0.9-2.8-1.2
				l-7.2-2.4c-3.4-1.1-6-2.6-7.7-4.5c-1.7-1.9-2.6-4.3-2.6-7.5c0-2,0.3-3.9,1-5.7c0.7-1.7,1.6-3.2,2.8-4.5c1.2-1.3,2.7-2.3,4.4-3
				c1.7-0.7,3.6-1.1,5.6-1.1c1.5,0,2.7,0.1,3.7,0.4c1,0.3,1.8,0.6,2.5,0.9c0.7,0.3,1.3,0.6,1.9,0.9c0.6,0.3,1.1,0.4,1.7,0.4
				c0.5,0,0.9-0.1,1.1-0.2c0.2-0.2,0.4-0.6,0.8-1.2h0.9v12.3h-0.8c-0.2-1.6-0.7-3.2-1.3-4.7c-0.6-1.5-1.4-2.8-2.4-4
				c-1-1.2-2.1-2.1-3.5-2.8c-1.4-0.7-2.9-1.1-4.7-1.1c-1,0-2.1,0.1-3.3,0.4c-1.2,0.3-2.3,0.8-3.4,1.5c-1,0.7-1.9,1.7-2.6,2.8
				c-0.7,1.2-1,2.7-1,4.5c0,1.4,0.3,2.7,0.8,3.7s1.2,1.9,2.1,2.6c0.9,0.7,1.8,1.3,2.9,1.8c1.1,0.5,2.1,0.9,3.2,1.3l7.6,2.6
				c0.8,0.3,1.8,0.6,3,1.1c1.2,0.5,2.4,1.1,3.5,2c1.2,0.9,2.1,2.1,3,3.6c0.8,1.5,1.2,3.4,1.2,5.7c0,2.1-0.4,4.1-1.1,6.1
				c-0.7,1.9-1.8,3.6-3.2,5.1c-1.4,1.5-3.1,2.6-5,3.5c-2,0.9-4.2,1.3-6.7,1.3c-0.9,0-1.7,0-2.3,0c-0.7,0-1.3-0.1-1.9-0.2
				c-0.6-0.1-1.2-0.2-1.8-0.3c-0.6-0.1-1.2-0.3-1.9-0.5c-0.8-0.3-1.7-0.6-2.7-1c-1-0.4-1.8-0.5-2.5-0.5c-0.6,0-1.1,0.1-1.3,0.4
				c-0.2,0.3-0.4,0.6-0.6,1.1h-0.9V110z"/>
		</g>
	</g>
</g>
</svg>
