<?xml version="1.0" encoding="utf-8"?>
<!-- Generator: Adobe Illustrator 22.1.0, SVG Export Plug-In . SVG Version: 6.00 Build 0)  -->
<svg version="1.1" id="Layer_1" xmlns="http://www.w3.org/2000/svg" xmlns:xlink="http://www.w3.org/1999/xlink" x="0px" y="0px"
	 viewBox="0 0 750 200" style="enable-background:new 0 0 750 200;" xml:space="preserve">
<style type="text/css">
	.st0{fill:none;stroke:#000000;stroke-width:0.5386;stroke-miterlimit:2.1173;}
	.st1{fill:none;stroke:#000000;stroke-width:0.4252;stroke-miterlimit:1.7573;}
</style>
<g>
	<path d="M180.5,152.1h-0.6v2.1h0.5C180.4,153.6,180.5,152.9,180.5,152.1z"/>
	<path d="M276.5,152.1L236.3,46.5h-3.5l-6,16c0.8,2.3,1.3,4,1.3,4l0,0l16.1,42.5h-28.9l-0.5,2.1H245l15.5,41h-16.4v2.1h45.5v-2.1
		H276.5z"/>
</g>
<polygon points="179.4,51.2 179.5,51.2 179.5,49.1 163.2,49.1 135.9,128.5 135.6,128.5 108.3,49.1 75.1,49.1 75.1,51.2 91.5,51.2 
	91.5,152.1 75.1,152.1 75.1,154.2 110.1,154.2 110.1,152.1 93.7,152.1 93.7,53.1 94,53.1 129.1,154.4 164.4,52.1 164.7,52.1 
	164.7,152.1 148.3,152.1 148.3,154.2 195.8,154.2 195.8,152.1 179.4,152.1 "/>
<g>
	<path d="M295.7,93.8h4v-27h-4v-0.6h8.1l6.6,21.2h0.1l6.6-21.2h7.9v0.6h-4v27h4v0.6h-11.5v-0.6h4V67.1h-0.1l-8.6,27.3l-8.5-27h-0.1
		v26.4h4v0.6h-8.5V93.8z"/>
	<path d="M328.4,93.8h3.2l9.7-28.2h0.9l9.7,28.2h3.2v0.6h-11v-0.6h4l-3.8-11h-8.3l-3.8,11h4v0.6h-7.7V93.8z M340.1,70.8l-3.9,11.5
		h7.9L340.1,70.8z"/>
	<path d="M358.6,93.8h4v-27h-4v-0.6h6.8c0.3,0,0.6,0,0.9,0c0.3,0,0.6,0,0.9-0.1c0.3,0,0.6,0,0.9,0c0.3,0,0.6,0,0.9,0
		c1.4,0,2.7,0.1,3.7,0.3c1.1,0.2,2.1,0.7,3,1.5c0.8,0.7,1.4,1.5,1.8,2.4c0.3,0.9,0.5,1.7,0.5,2.5c0,0.4-0.1,0.9-0.2,1.5
		c-0.1,0.6-0.4,1.2-0.9,1.9c-0.4,0.6-1.1,1.2-1.9,1.8c-0.8,0.5-1.9,0.9-3.3,1.1v0.1c0.4,0.1,0.9,0.2,1.6,0.3c0.7,0.1,1.3,0.4,2,0.7
		c0.7,0.3,1.3,0.8,1.9,1.4s1,1.3,1.2,2.2c0.1,0.5,0.2,1.1,0.3,1.8c0.1,0.7,0.1,1.4,0.1,2.1s0.1,1.4,0.1,2c0,0.7,0.1,1.2,0.2,1.7
		c0.1,0.7,0.4,1.3,0.7,1.9s0.8,0.8,1.5,0.8c0.3,0,0.6-0.1,1-0.2c0.3-0.1,0.6-0.3,0.9-0.6l0.3,0.4c-0.1,0.1-0.3,0.2-0.4,0.3
		c-0.2,0.1-0.4,0.2-0.6,0.3c-0.2,0.1-0.5,0.2-0.9,0.3c-0.3,0.1-0.8,0.1-1.3,0.1c-1,0-1.8-0.1-2.4-0.4c-0.6-0.3-1.1-0.7-1.5-1.2
		s-0.7-1.1-0.8-1.9c-0.2-0.7-0.3-1.6-0.4-2.6l-0.3-3.6c-0.1-1.3-0.3-2.3-0.7-3.1c-0.4-0.7-0.8-1.3-1.3-1.6c-0.5-0.3-1-0.5-1.6-0.6
		c-0.5-0.1-1-0.1-1.4-0.1h-3.6v14.2h4v0.6h-11.5V93.8z M366.1,79h3.3c0.7,0,1.3-0.1,1.8-0.3c0.5-0.2,1-0.5,1.4-1
		c0.4-0.5,0.7-1.1,0.9-1.9c0.2-0.8,0.3-1.8,0.3-3c0-1.4-0.2-2.5-0.5-3.3c-0.3-0.8-0.7-1.5-1.3-1.9c-0.5-0.4-1.1-0.7-1.7-0.8
		c-0.6-0.1-1.3-0.2-1.9-0.2c-0.4,0-0.9,0-1.3,0c-0.4,0-0.8,0-1.1,0.1V79z"/>
	<path d="M386.9,93.8h4v-27h-4v-0.6h11.2v0.6h-3.7v12.5h0.4l10.8-12.5H402v-0.6h7.4v0.6h-3l-9.1,10.6l13,16.4h2.4v0.6h-10.4v-0.6
		h3.2l-10.7-13.9h-0.3v13.9h3.7v0.6h-11.2V93.8z"/>
</g>
<g>
	<path d="M424.1,93.8h3.2l9.7-28.2h0.9l9.7,28.2h3.2v0.6h-11v-0.6h4l-3.8-11h-8.3l-3.8,11h4v0.6h-7.7V93.8z M435.8,70.8l-3.9,11.5
		h7.9L435.8,70.8z"/>
	<path d="M454.3,93.8h4v-27h-4v-0.6h11.5v0.6h-4v27h6.4c2.1,0,3.8-0.7,4.9-2.2c1.2-1.4,2.1-3.4,2.6-5.9h0.4v8.6h-21.9V93.8z"/>
</g>
<g>
	<path d="M480.5,93.8h4v-27h-4v-0.6H501v6.8h-0.4c-0.3-1-0.6-1.9-1-2.7c-0.4-0.8-0.8-1.4-1.3-2c-0.5-0.5-1.1-0.9-1.8-1.2
		c-0.7-0.3-1.5-0.4-2.5-0.4h-5.9V79h2.3c0.8,0,1.5-0.1,2-0.2c0.5-0.2,1-0.5,1.4-0.9c0.4-0.4,0.7-1,1-1.8c0.3-0.7,0.5-1.7,0.8-2.9
		h0.4v12.3h-0.4c-0.2-0.8-0.3-1.5-0.5-2.2c-0.2-0.7-0.4-1.3-0.8-1.9c-0.3-0.6-0.8-1-1.3-1.3c-0.5-0.3-1.2-0.5-2.1-0.5h-2.9v14.2h6.8
		c1.3,0,2.4-0.3,3.3-0.9c0.9-0.6,1.6-1.4,2.1-2.2c0.5-0.9,1-1.7,1.2-2.7c0.3-0.9,0.4-1.7,0.5-2.3h0.4v8.6h-21.9V93.8z"/>
	<path d="M507,93.8h3.4l7.2-13.2L510,66.8h-3v-0.6h10.7v0.6h-3.4l5.7,10.4l5.7-10.4h-3.4v-0.6h7.5v0.6h-3.4l-6,10.9l8.9,16h3v0.6
		h-10.7v-0.6h3.4l-7-12.6L511,93.8h3.4v0.6H507V93.8z"/>
</g>
<g>
	<path d="M535.7,93.8h3.2l9.7-28.2h0.9l9.7,28.2h3.2v0.6h-11v-0.6h4l-3.8-11h-8.3l-3.8,11h4v0.6h-7.7V93.8z M547.3,70.8l-3.9,11.5
		h7.9L547.3,70.8z"/>
	<path d="M565.7,93.8h4v-27h-4v-0.6h7.7l12.1,21.5h0.1V66.8h-4v-0.6h8.5v0.6h-4v28.1h-0.7l-15.1-26.4h-0.1v25.3h4v0.6h-8.5V93.8z"/>
</g>
<g>
	<path d="M594,93.8h4v-27h-4v-0.6h6.7c0.3,0,0.7,0,1,0c0.3,0,0.7,0,1-0.1c0.3,0,0.7,0,1,0c0.3,0,0.7,0,1,0c0.7,0,1.4,0,1.9,0
		c0.6,0,1.1,0.1,1.6,0.1c0.5,0.1,1,0.2,1.4,0.3c0.4,0.1,0.9,0.3,1.4,0.5c1.5,0.5,2.7,1.2,3.8,2.1c1.1,0.9,1.9,1.9,2.6,3.1
		c0.7,1.2,1.2,2.4,1.5,3.8c0.3,1.4,0.5,2.8,0.5,4.3c0,1.7-0.2,3.3-0.6,4.7c-0.4,1.4-0.9,2.6-1.6,3.7s-1.5,2-2.3,2.8
		c-0.9,0.8-1.9,1.4-2.9,1.9c-0.6,0.3-1.1,0.5-1.6,0.7c-0.5,0.2-1,0.3-1.6,0.4c-0.5,0.1-1.1,0.1-1.8,0.2c-0.6,0-1.4,0-2.2,0
		c-0.4,0-0.7,0-1.1,0c-0.4,0-0.8,0-1.2-0.1c-0.4,0-0.8,0-1.2-0.1c-0.4,0-0.8,0-1.1,0H594V93.8z M601.5,93.8c0.4,0.1,0.9,0.1,1.4,0.1
		c0.5,0,1.1,0,1.8,0c0.8,0,1.6,0,2.4-0.1c0.8-0.1,1.6-0.3,2.3-0.6c0.7-0.3,1.4-0.7,2-1.3c0.6-0.6,1.2-1.3,1.7-2.2
		c0.8-1.4,1.3-2.9,1.6-4.4c0.3-1.5,0.4-3.1,0.4-4.9c0-2.1-0.2-4-0.5-5.7c-0.4-1.7-0.9-3.1-1.8-4.3c-0.8-1.2-1.9-2.1-3.3-2.8
		c-1.4-0.7-3-1-5.1-1c-0.6,0-1.1,0-1.6,0c-0.5,0-1,0.1-1.4,0.1V93.8z"/>
	<path d="M622.9,93.8h4v-27h-4v-0.6h20.5v6.8H643c-0.3-1-0.6-1.9-1-2.7c-0.4-0.8-0.8-1.4-1.3-2c-0.5-0.5-1.1-0.9-1.8-1.2
		c-0.7-0.3-1.5-0.4-2.5-0.4h-5.9V79h2.3c0.8,0,1.5-0.1,2-0.2c0.5-0.2,1-0.5,1.4-0.9c0.4-0.4,0.7-1,1-1.8c0.3-0.7,0.5-1.7,0.8-2.9
		h0.4v12.3h-0.4c-0.2-0.8-0.3-1.5-0.5-2.2c-0.2-0.7-0.4-1.3-0.8-1.9c-0.3-0.6-0.8-1-1.3-1.3c-0.5-0.3-1.2-0.5-2.1-0.5h-2.9v14.2h6.8
		c1.3,0,2.4-0.3,3.3-0.9c0.9-0.6,1.6-1.4,2.1-2.2c0.5-0.9,1-1.7,1.2-2.7c0.3-0.9,0.4-1.7,0.5-2.3h0.4v8.6h-21.9V93.8z"/>
</g>
<g>
	<path d="M649.4,93.8h4v-27h-4v-0.6h6.8c0.3,0,0.6,0,0.9,0c0.3,0,0.6,0,0.9-0.1c0.3,0,0.6,0,0.9,0c0.3,0,0.6,0,0.9,0
		c1.4,0,2.7,0.1,3.7,0.3c1.1,0.2,2.1,0.7,3,1.5c0.8,0.7,1.4,1.5,1.8,2.4c0.3,0.9,0.5,1.7,0.5,2.5c0,0.4-0.1,0.9-0.2,1.5
		c-0.1,0.6-0.4,1.2-0.9,1.9c-0.4,0.6-1.1,1.2-1.9,1.8c-0.8,0.5-1.9,0.9-3.3,1.1v0.1c0.4,0.1,0.9,0.2,1.6,0.3c0.7,0.1,1.3,0.4,2,0.7
		c0.7,0.3,1.3,0.8,1.9,1.4s1,1.3,1.2,2.2c0.1,0.5,0.2,1.1,0.3,1.8c0.1,0.7,0.1,1.4,0.1,2.1s0.1,1.4,0.1,2c0,0.7,0.1,1.2,0.2,1.7
		c0.1,0.7,0.4,1.3,0.7,1.9s0.8,0.8,1.5,0.8c0.3,0,0.6-0.1,1-0.2c0.3-0.1,0.6-0.3,0.9-0.6l0.3,0.4c-0.1,0.1-0.3,0.2-0.4,0.3
		c-0.2,0.1-0.4,0.2-0.6,0.3c-0.2,0.1-0.5,0.2-0.9,0.3c-0.3,0.1-0.8,0.1-1.3,0.1c-1,0-1.8-0.1-2.4-0.4c-0.6-0.3-1.1-0.7-1.5-1.2
		s-0.7-1.1-0.8-1.9c-0.2-0.7-0.3-1.6-0.4-2.6l-0.3-3.6c-0.1-1.3-0.3-2.3-0.7-3.1c-0.4-0.7-0.8-1.3-1.3-1.6c-0.5-0.3-1-0.5-1.6-0.6
		c-0.5-0.1-1-0.1-1.4-0.1H657v14.2h4v0.6h-11.5V93.8z M657,79h3.3c0.7,0,1.3-0.1,1.8-0.3c0.5-0.2,1-0.5,1.4-1
		c0.4-0.5,0.7-1.1,0.9-1.9c0.2-0.8,0.3-1.8,0.3-3c0-1.4-0.2-2.5-0.5-3.3c-0.3-0.8-0.7-1.5-1.3-1.9c-0.5-0.4-1.1-0.7-1.7-0.8
		c-0.6-0.1-1.3-0.2-1.9-0.2c-0.4,0-0.9,0-1.3,0c-0.4,0-0.8,0-1.1,0.1V79z"/>
</g>
<g>
	<g>
		<path class="st0" d="M295.7,93.8h4v-27h-4v-0.6h8.1l6.6,21.2h0.1l6.6-21.2h7.9v0.6h-4v27h4v0.6h-11.5v-0.6h4V67.1h-0.1l-8.6,27.3
			l-8.5-27h-0.1v26.4h4v0.6h-8.5V93.8z"/>
		<path class="st0" d="M328.4,93.8h3.2l9.7-28.2h0.9l9.7,28.2h3.2v0.6h-11v-0.6h4l-3.8-11h-8.3l-3.8,11h4v0.6h-7.7V93.8z
			 M340.1,70.8l-3.9,11.5h7.9L340.1,70.8z"/>
		<path class="st0" d="M358.6,93.8h4v-27h-4v-0.6h6.8c0.3,0,0.6,0,0.9,0c0.3,0,0.6,0,0.9-0.1c0.3,0,0.6,0,0.9,0c0.3,0,0.6,0,0.9,0
			c1.4,0,2.7,0.1,3.7,0.3c1.1,0.2,2.1,0.7,3,1.5c0.8,0.7,1.4,1.5,1.8,2.4c0.3,0.9,0.5,1.7,0.5,2.5c0,0.4-0.1,0.9-0.2,1.5
			c-0.1,0.6-0.4,1.2-0.9,1.9c-0.4,0.6-1.1,1.2-1.9,1.8c-0.8,0.5-1.9,0.9-3.3,1.1v0.1c0.4,0.1,0.9,0.2,1.6,0.3c0.7,0.1,1.3,0.4,2,0.7
			c0.7,0.3,1.3,0.8,1.9,1.4s1,1.3,1.2,2.2c0.1,0.5,0.2,1.1,0.3,1.8c0.1,0.7,0.1,1.4,0.1,2.1s0.1,1.4,0.1,2c0,0.7,0.1,1.2,0.2,1.7
			c0.1,0.7,0.4,1.3,0.7,1.9s0.8,0.8,1.5,0.8c0.3,0,0.6-0.1,1-0.2c0.3-0.1,0.6-0.3,0.9-0.6l0.3,0.4c-0.1,0.1-0.3,0.2-0.4,0.3
			c-0.2,0.1-0.4,0.2-0.6,0.3c-0.2,0.1-0.5,0.2-0.9,0.3c-0.3,0.1-0.8,0.1-1.3,0.1c-1,0-1.8-0.1-2.4-0.4c-0.6-0.3-1.1-0.7-1.5-1.2
			s-0.7-1.1-0.8-1.9c-0.2-0.7-0.3-1.6-0.4-2.6l-0.3-3.6c-0.1-1.3-0.3-2.3-0.7-3.1c-0.4-0.7-0.8-1.3-1.3-1.6c-0.5-0.3-1-0.5-1.6-0.6
			c-0.5-0.1-1-0.1-1.4-0.1h-3.6v14.2h4v0.6h-11.5V93.8z M366.1,79h3.3c0.7,0,1.3-0.1,1.8-0.3c0.5-0.2,1-0.5,1.4-1
			c0.4-0.5,0.7-1.1,0.9-1.9c0.2-0.8,0.3-1.8,0.3-3c0-1.4-0.2-2.5-0.5-3.3c-0.3-0.8-0.7-1.5-1.3-1.9c-0.5-0.4-1.1-0.7-1.7-0.8
			c-0.6-0.1-1.3-0.2-1.9-0.2c-0.4,0-0.9,0-1.3,0c-0.4,0-0.8,0-1.1,0.1V79z"/>
		<path class="st0" d="M386.9,93.8h4v-27h-4v-0.6h11.2v0.6h-3.7v12.5h0.4l10.8-12.5H402v-0.6h7.4v0.6h-3l-9.1,10.6l13,16.4h2.4v0.6
			h-10.4v-0.6h3.2l-10.7-13.9h-0.3v13.9h3.7v0.6h-11.2V93.8z"/>
	</g>
	<g>
		<path class="st0" d="M424.1,93.8h3.2l9.7-28.2h0.9l9.7,28.2h3.2v0.6h-11v-0.6h4l-3.8-11h-8.3l-3.8,11h4v0.6h-7.7V93.8z
			 M435.8,70.8l-3.9,11.5h7.9L435.8,70.8z"/>
		<path class="st0" d="M454.3,93.8h4v-27h-4v-0.6h11.5v0.6h-4v27h6.4c2.1,0,3.8-0.7,4.9-2.2c1.2-1.4,2.1-3.4,2.6-5.9h0.4v8.6h-21.9
			V93.8z"/>
	</g>
	<g>
		<path class="st0" d="M480.5,93.8h4v-27h-4v-0.6H501v6.8h-0.4c-0.3-1-0.6-1.9-1-2.7c-0.4-0.8-0.8-1.4-1.3-2
			c-0.5-0.5-1.1-0.9-1.8-1.2c-0.7-0.3-1.5-0.4-2.5-0.4h-5.9V79h2.3c0.8,0,1.5-0.1,2-0.2c0.5-0.2,1-0.5,1.4-0.9c0.4-0.4,0.7-1,1-1.8
			c0.3-0.7,0.5-1.7,0.8-2.9h0.4v12.3h-0.4c-0.2-0.8-0.3-1.5-0.5-2.2c-0.2-0.7-0.4-1.3-0.8-1.9c-0.3-0.6-0.8-1-1.3-1.3
			c-0.5-0.3-1.2-0.5-2.1-0.5h-2.9v14.2h6.8c1.3,0,2.4-0.3,3.3-0.9c0.9-0.6,1.6-1.4,2.1-2.2c0.5-0.9,1-1.7,1.2-2.7
			c0.3-0.9,0.4-1.7,0.5-2.3h0.4v8.6h-21.9V93.8z"/>
		<path class="st0" d="M507,93.8h3.4l7.2-13.2L510,66.8h-3v-0.6h10.7v0.6h-3.4l5.7,10.4l5.7-10.4h-3.4v-0.6h7.5v0.6h-3.4l-6,10.9
			l8.9,16h3v0.6h-10.7v-0.6h3.4l-7-12.6L511,93.8h3.4v0.6H507V93.8z"/>
	</g>
	<g>
		<path class="st0" d="M535.7,93.8h3.2l9.7-28.2h0.9l9.7,28.2h3.2v0.6h-11v-0.6h4l-3.8-11h-8.3l-3.8,11h4v0.6h-7.7V93.8z
			 M547.3,70.8l-3.9,11.5h7.9L547.3,70.8z"/>
		<path class="st0" d="M565.7,93.8h4v-27h-4v-0.6h7.7l12.1,21.5h0.1V66.8h-4v-0.6h8.5v0.6h-4v28.1h-0.7l-15.1-26.4h-0.1v25.3h4v0.6
			h-8.5V93.8z"/>
	</g>
	<g>
		<path class="st0" d="M594,93.8h4v-27h-4v-0.6h6.7c0.3,0,0.7,0,1,0c0.3,0,0.7,0,1-0.1c0.3,0,0.7,0,1,0c0.3,0,0.7,0,1,0
			c0.7,0,1.4,0,1.9,0c0.6,0,1.1,0.1,1.6,0.1c0.5,0.1,1,0.2,1.4,0.3c0.4,0.1,0.9,0.3,1.4,0.5c1.5,0.5,2.7,1.2,3.8,2.1
			c1.1,0.9,1.9,1.9,2.6,3.1c0.7,1.2,1.2,2.4,1.5,3.8c0.3,1.4,0.5,2.8,0.5,4.3c0,1.7-0.2,3.3-0.6,4.7c-0.4,1.4-0.9,2.6-1.6,3.7
			s-1.5,2-2.3,2.8c-0.9,0.8-1.9,1.4-2.9,1.9c-0.6,0.3-1.1,0.5-1.6,0.7c-0.5,0.2-1,0.3-1.6,0.4c-0.5,0.1-1.1,0.1-1.8,0.2
			c-0.6,0-1.4,0-2.2,0c-0.4,0-0.7,0-1.1,0c-0.4,0-0.8,0-1.2-0.1c-0.4,0-0.8,0-1.2-0.1c-0.4,0-0.8,0-1.1,0H594V93.8z M601.5,93.8
			c0.4,0.1,0.9,0.1,1.4,0.1c0.5,0,1.1,0,1.8,0c0.8,0,1.6,0,2.4-0.1c0.8-0.1,1.6-0.3,2.3-0.6c0.7-0.3,1.4-0.7,2-1.3
			c0.6-0.6,1.2-1.3,1.7-2.2c0.8-1.4,1.3-2.9,1.6-4.4c0.3-1.5,0.4-3.1,0.4-4.9c0-2.1-0.2-4-0.5-5.7c-0.4-1.7-0.9-3.1-1.8-4.3
			c-0.8-1.2-1.9-2.1-3.3-2.8c-1.4-0.7-3-1-5.1-1c-0.6,0-1.1,0-1.6,0c-0.5,0-1,0.1-1.4,0.1V93.8z"/>
		<path class="st0" d="M622.9,93.8h4v-27h-4v-0.6h20.5v6.8H643c-0.3-1-0.6-1.9-1-2.7c-0.4-0.8-0.8-1.4-1.3-2
			c-0.5-0.5-1.1-0.9-1.8-1.2c-0.7-0.3-1.5-0.4-2.5-0.4h-5.9V79h2.3c0.8,0,1.5-0.1,2-0.2c0.5-0.2,1-0.5,1.4-0.9c0.4-0.4,0.7-1,1-1.8
			c0.3-0.7,0.5-1.7,0.8-2.9h0.4v12.3h-0.4c-0.2-0.8-0.3-1.5-0.5-2.2c-0.2-0.7-0.4-1.3-0.8-1.9c-0.3-0.6-0.8-1-1.3-1.3
			c-0.5-0.3-1.2-0.5-2.1-0.5h-2.9v14.2h6.8c1.3,0,2.4-0.3,3.3-0.9c0.9-0.6,1.6-1.4,2.1-2.2c0.5-0.9,1-1.7,1.2-2.7
			c0.3-0.9,0.4-1.7,0.5-2.3h0.4v8.6h-21.9V93.8z"/>
	</g>
	<g>
		<path class="st0" d="M649.4,93.8h4v-27h-4v-0.6h6.8c0.3,0,0.6,0,0.9,0c0.3,0,0.6,0,0.9-0.1c0.3,0,0.6,0,0.9,0c0.3,0,0.6,0,0.9,0
			c1.4,0,2.7,0.1,3.7,0.3c1.1,0.2,2.1,0.7,3,1.5c0.8,0.7,1.4,1.5,1.8,2.4c0.3,0.9,0.5,1.7,0.5,2.5c0,0.4-0.1,0.9-0.2,1.5
			c-0.1,0.6-0.4,1.2-0.9,1.9c-0.4,0.6-1.1,1.2-1.9,1.8c-0.8,0.5-1.9,0.9-3.3,1.1v0.1c0.4,0.1,0.9,0.2,1.6,0.3c0.7,0.1,1.3,0.4,2,0.7
			c0.7,0.3,1.3,0.8,1.9,1.4s1,1.3,1.2,2.2c0.1,0.5,0.2,1.1,0.3,1.8c0.1,0.7,0.1,1.4,0.1,2.1s0.1,1.4,0.1,2c0,0.7,0.1,1.2,0.2,1.7
			c0.1,0.7,0.4,1.3,0.7,1.9s0.8,0.8,1.5,0.8c0.3,0,0.6-0.1,1-0.2c0.3-0.1,0.6-0.3,0.9-0.6l0.3,0.4c-0.1,0.1-0.3,0.2-0.4,0.3
			c-0.2,0.1-0.4,0.2-0.6,0.3c-0.2,0.1-0.5,0.2-0.9,0.3c-0.3,0.1-0.8,0.1-1.3,0.1c-1,0-1.8-0.1-2.4-0.4c-0.6-0.3-1.1-0.7-1.5-1.2
			s-0.7-1.1-0.8-1.9c-0.2-0.7-0.3-1.6-0.4-2.6l-0.3-3.6c-0.1-1.3-0.3-2.3-0.7-3.1c-0.4-0.7-0.8-1.3-1.3-1.6c-0.5-0.3-1-0.5-1.6-0.6
			c-0.5-0.1-1-0.1-1.4-0.1H657v14.2h4v0.6h-11.5V93.8z M657,79h3.3c0.7,0,1.3-0.1,1.8-0.3c0.5-0.2,1-0.5,1.4-1
			c0.4-0.5,0.7-1.1,0.9-1.9c0.2-0.8,0.3-1.8,0.3-3c0-1.4-0.2-2.5-0.5-3.3c-0.3-0.8-0.7-1.5-1.3-1.9c-0.5-0.4-1.1-0.7-1.7-0.8
			c-0.6-0.1-1.3-0.2-1.9-0.2c-0.4,0-0.9,0-1.3,0c-0.4,0-0.8,0-1.1,0.1V79z"/>
	</g>
</g>
<g>
	<path d="M333.3,137.1h3.3v-22.4h-3.3v-0.5h5.5c0.3,0,0.6,0,0.8,0c0.3,0,0.6,0,0.8,0c0.3,0,0.6,0,0.8,0c0.3,0,0.6,0,0.8,0
		c0.6,0,1.1,0,1.6,0s0.9,0.1,1.3,0.1c0.4,0.1,0.8,0.1,1.2,0.2c0.4,0.1,0.8,0.2,1.2,0.4c1.2,0.4,2.3,1,3.1,1.8
		c0.9,0.7,1.6,1.6,2.2,2.5c0.6,1,1,2,1.2,3.1c0.3,1.1,0.4,2.3,0.4,3.6c0,1.4-0.2,2.7-0.5,3.9c-0.3,1.1-0.8,2.2-1.3,3
		c-0.6,0.9-1.2,1.6-1.9,2.3c-0.7,0.6-1.5,1.2-2.4,1.6c-0.5,0.2-0.9,0.4-1.4,0.6c-0.4,0.1-0.9,0.2-1.3,0.3c-0.4,0.1-0.9,0.1-1.5,0.1
		c-0.5,0-1.1,0-1.8,0c-0.3,0-0.6,0-1,0c-0.3,0-0.7,0-1,0c-0.3,0-0.7,0-1,0c-0.3,0-0.6,0-0.9,0h-5.1V137.1z M339.6,137.1
		c0.3,0,0.7,0.1,1.2,0.1c0.4,0,0.9,0,1.5,0c0.7,0,1.3,0,2-0.1s1.3-0.2,1.9-0.5c0.6-0.2,1.2-0.6,1.7-1.1c0.5-0.5,1-1.1,1.4-1.8
		c0.6-1.2,1.1-2.4,1.3-3.6c0.2-1.2,0.4-2.6,0.4-4c0-1.7-0.1-3.3-0.4-4.7c-0.3-1.4-0.8-2.6-1.5-3.6c-0.7-1-1.6-1.8-2.7-2.3
		s-2.5-0.8-4.2-0.8c-0.5,0-0.9,0-1.4,0c-0.4,0-0.8,0-1.2,0.1V137.1z"/>
	<path d="M357.1,137.1h3.3v-22.4h-3.3v-0.5h17v5.7h-0.3c-0.3-0.9-0.5-1.6-0.8-2.2c-0.3-0.6-0.7-1.2-1.1-1.6c-0.4-0.4-0.9-0.8-1.5-1
		c-0.6-0.2-1.3-0.3-2.1-0.3h-4.9v10.1h1.9c0.7,0,1.2-0.1,1.7-0.2s0.8-0.4,1.2-0.7c0.3-0.4,0.6-0.8,0.8-1.5c0.2-0.6,0.5-1.4,0.7-2.4
		h0.3v10.2h-0.3c-0.1-0.6-0.3-1.2-0.4-1.8c-0.1-0.6-0.4-1.1-0.6-1.6c-0.3-0.5-0.6-0.8-1.1-1.1c-0.4-0.3-1-0.4-1.7-0.4h-2.4v11.8h5.6
		c1.1,0,2-0.3,2.7-0.8c0.7-0.5,1.3-1.1,1.8-1.8c0.5-0.7,0.8-1.4,1-2.2c0.2-0.8,0.4-1.4,0.4-1.9h0.3v7.2h-18.1V137.1z"/>
</g>
<g>
	<path d="M380.1,130.5h0.3c0.2,1.2,0.5,2.2,0.8,3c0.3,0.8,0.7,1.5,1.1,2s0.9,0.9,1.3,1.2c0.5,0.3,0.9,0.5,1.4,0.6s0.9,0.2,1.3,0.2
		c0.4,0,0.8,0,1.2,0c1.1,0,1.9-0.2,2.6-0.5c0.7-0.3,1.2-0.8,1.6-1.3s0.7-1.1,0.8-1.7c0.2-0.6,0.2-1.2,0.2-1.7c0-0.8-0.1-1.4-0.4-2
		c-0.3-0.5-0.6-1-1-1.4s-0.8-0.7-1.3-0.9c-0.5-0.2-0.9-0.4-1.3-0.6l-3.4-1.1c-1.6-0.5-2.8-1.3-3.6-2.2c-0.8-0.9-1.2-2.1-1.2-3.6
		c0-1,0.2-1.9,0.5-2.7c0.3-0.8,0.8-1.6,1.3-2.2s1.3-1.1,2.1-1.4s1.7-0.5,2.6-0.5c0.7,0,1.3,0.1,1.7,0.2s0.9,0.3,1.2,0.4
		c0.3,0.2,0.6,0.3,0.9,0.4s0.5,0.2,0.8,0.2c0.3,0,0.4,0,0.5-0.1c0.1-0.1,0.2-0.3,0.4-0.6h0.4v5.9h-0.4c-0.1-0.8-0.3-1.5-0.6-2.3
		c-0.3-0.7-0.7-1.4-1.1-1.9c-0.5-0.6-1-1-1.7-1.3c-0.6-0.3-1.4-0.5-2.2-0.5c-0.5,0-1,0.1-1.6,0.2c-0.6,0.1-1.1,0.4-1.6,0.7
		c-0.5,0.3-0.9,0.8-1.2,1.4c-0.3,0.6-0.5,1.3-0.5,2.2c0,0.7,0.1,1.3,0.4,1.8c0.3,0.5,0.6,0.9,1,1.2c0.4,0.3,0.9,0.6,1.4,0.9
		c0.5,0.2,1,0.4,1.5,0.6l3.6,1.2c0.4,0.1,0.9,0.3,1.4,0.5s1.1,0.5,1.7,1c0.5,0.4,1,1,1.4,1.7s0.6,1.6,0.6,2.7c0,1-0.2,2-0.5,2.9
		c-0.3,0.9-0.8,1.7-1.5,2.5c-0.7,0.7-1.4,1.3-2.4,1.7c-0.9,0.4-2,0.6-3.2,0.6c-0.4,0-0.8,0-1.1,0c-0.3,0-0.6,0-0.9-0.1
		c-0.3,0-0.6-0.1-0.8-0.1c-0.3-0.1-0.6-0.1-0.9-0.2c-0.4-0.1-0.8-0.3-1.3-0.5c-0.5-0.2-0.9-0.3-1.2-0.3c-0.3,0-0.5,0.1-0.6,0.2
		c-0.1,0.1-0.2,0.3-0.3,0.5h-0.4V130.5z"/>
	<path d="M398.1,137.1h3.3v-22.4h-3.3v-0.5h9.6v0.5h-3.3v22.4h3.3v0.5h-9.6V137.1z"/>
</g>
<g>
	<path d="M431.2,129.2h-2.4v7.4h-0.4c-0.2-0.2-0.4-0.4-0.5-0.5s-0.4-0.1-0.7-0.1c-0.4,0-0.7,0.1-1.1,0.3c-0.4,0.2-0.8,0.4-1.3,0.7
		c-0.5,0.3-1.1,0.5-1.7,0.7s-1.4,0.3-2.4,0.3c-1.4,0-2.7-0.3-3.7-0.8c-1.1-0.5-2.1-1.3-3.2-2.4c-1-1.1-1.8-2.4-2.5-3.9
		c-0.7-1.5-1-3.2-1-5c0-1.2,0.1-2.4,0.4-3.4c0.3-1,0.6-1.9,0.9-2.6c0.4-0.7,0.7-1.4,1.1-1.9s0.7-0.9,1-1.2c0.9-1,1.9-1.8,3.1-2.4
		c1.1-0.6,2.5-0.9,3.9-0.9c0.8,0,1.4,0.1,1.9,0.2c0.5,0.1,0.9,0.3,1.3,0.4c0.4,0.2,0.7,0.3,1,0.4c0.3,0.1,0.6,0.2,1,0.2
		c0.4,0,0.7-0.1,0.8-0.2c0.2-0.1,0.3-0.3,0.5-0.5h0.4v6.5h-0.3c-0.1-0.6-0.2-1.2-0.5-2s-0.6-1.5-1.1-2.2c-0.5-0.7-1.1-1.3-1.9-1.8
		s-1.8-0.7-3.1-0.7c-1.5,0-2.7,0.3-3.6,1c-0.9,0.7-1.6,1.6-2.1,2.7c-0.5,1.1-0.8,2.4-1,3.8c-0.2,1.4-0.3,2.8-0.3,4.3
		c0,1,0,2,0.1,2.9s0.2,1.9,0.4,2.8c0.2,0.9,0.5,1.7,0.8,2.4s0.8,1.4,1.3,1.9c0.6,0.6,1.2,1,1.8,1.2c0.6,0.2,1.5,0.3,2.5,0.3
		c0.6,0,1.2-0.1,1.8-0.3c0.6-0.2,1.2-0.6,1.7-1c0.5-0.5,0.9-1,1.2-1.8c0.3-0.7,0.5-1.5,0.5-2.5v-2.7h-3.8v-0.5h9.1V129.2z"/>
	<path d="M432.9,137.1h3.3v-22.4h-3.3v-0.5h6.4l10.1,17.8h0.1v-17.4h-3.3v-0.5h7v0.5h-3.3V138h-0.6l-12.5-21.9h-0.1v21h3.3v0.5h-7
		V137.1z"/>
</g>
<g>
	<path d="M462.9,137.1h2.6l8-23.4h0.7l8.1,23.4h2.6v0.5h-9.2v-0.5h3.3L476,128h-6.9l-3.1,9.1h3.3v0.5h-6.4V137.1z M472.5,118
		l-3.3,9.5h6.5L472.5,118z"/>
	<path d="M487.7,137.1h3.3v-22.4h-3.3v-0.5h5.6c0.2,0,0.5,0,0.7,0c0.2,0,0.5,0,0.7,0c0.2,0,0.5,0,0.7,0c0.2,0,0.5,0,0.7,0
		c1.2,0,2.2,0.1,3.1,0.2c0.9,0.1,1.7,0.6,2.5,1.2c0.7,0.6,1.2,1.3,1.5,2c0.3,0.7,0.4,1.4,0.4,2.1c0,0.3-0.1,0.7-0.2,1.3
		c-0.1,0.5-0.3,1-0.7,1.6c-0.4,0.5-0.9,1-1.6,1.5c-0.7,0.4-1.6,0.7-2.8,0.9v0.1c0.3,0,0.7,0.1,1.3,0.2c0.5,0.1,1.1,0.3,1.7,0.6
		c0.6,0.3,1.1,0.7,1.6,1.1s0.8,1.1,1,1.8c0.1,0.4,0.2,0.9,0.3,1.5c0,0.6,0.1,1.1,0.1,1.7c0,0.6,0.1,1.2,0.1,1.7c0,0.5,0.1,1,0.2,1.4
		c0.1,0.6,0.3,1.1,0.6,1.5c0.3,0.5,0.7,0.7,1.2,0.7c0.3,0,0.5-0.1,0.8-0.2c0.3-0.1,0.5-0.3,0.7-0.5l0.3,0.4
		c-0.1,0.1-0.2,0.2-0.3,0.3c-0.1,0.1-0.3,0.2-0.5,0.3s-0.4,0.2-0.7,0.2c-0.3,0.1-0.6,0.1-1.1,0.1c-0.8,0-1.5-0.1-2-0.3
		c-0.5-0.2-0.9-0.5-1.3-1c-0.3-0.4-0.5-0.9-0.7-1.6c-0.1-0.6-0.3-1.3-0.3-2.2l-0.2-3c-0.1-1.1-0.3-1.9-0.6-2.6
		c-0.3-0.6-0.7-1.1-1.1-1.3c-0.4-0.3-0.9-0.5-1.3-0.5s-0.9-0.1-1.2-0.1h-3v11.8h3.3v0.5h-9.6V137.1z M494,124.8h2.7
		c0.6,0,1.1-0.1,1.5-0.2s0.8-0.4,1.2-0.8c0.3-0.4,0.6-0.9,0.8-1.6c0.2-0.7,0.3-1.5,0.3-2.5c0-1.1-0.1-2-0.4-2.7
		c-0.3-0.7-0.6-1.2-1-1.6c-0.4-0.3-0.9-0.6-1.4-0.7s-1-0.2-1.6-0.2c-0.4,0-0.7,0-1.1,0c-0.4,0-0.7,0-0.9,0.1V124.8z"/>
</g>
<g>
	<path d="M513.1,137.1h3.3v-22.4h-1.7c-0.4,0-0.8,0-1.3,0.1c-0.5,0.1-1,0.3-1.5,0.6c-0.5,0.3-1,0.9-1.5,1.7
		c-0.5,0.8-0.9,1.8-1.2,3.1h-0.3v-6h18.1v6h-0.3c-0.3-1.3-0.7-2.4-1.2-3.1c-0.5-0.8-1-1.3-1.5-1.7c-0.5-0.3-1-0.6-1.5-0.6
		c-0.5-0.1-0.9-0.1-1.3-0.1h-1.7v22.4h3.3v0.5h-9.6V137.1z"/>
	<path d="M530.2,137.1h3.3v-22.4h-3.3v-0.5h9.6v0.5h-3.3v22.4h3.3v0.5h-9.6V137.1z"/>
</g>
<g>
	<path d="M543.6,130.5h0.3c0.2,1.2,0.5,2.2,0.8,3c0.3,0.8,0.7,1.5,1.1,2s0.9,0.9,1.3,1.2c0.5,0.3,0.9,0.5,1.4,0.6s0.9,0.2,1.3,0.2
		c0.4,0,0.8,0,1.2,0c1.1,0,1.9-0.2,2.6-0.5c0.7-0.3,1.2-0.8,1.6-1.3s0.7-1.1,0.8-1.7c0.2-0.6,0.2-1.2,0.2-1.7c0-0.8-0.1-1.4-0.4-2
		c-0.3-0.5-0.6-1-1-1.4s-0.8-0.7-1.3-0.9c-0.5-0.2-0.9-0.4-1.3-0.6l-3.4-1.1c-1.6-0.5-2.8-1.3-3.6-2.2c-0.8-0.9-1.2-2.1-1.2-3.6
		c0-1,0.2-1.9,0.5-2.7c0.3-0.8,0.8-1.6,1.3-2.2s1.3-1.1,2.1-1.4s1.7-0.5,2.6-0.5c0.7,0,1.3,0.1,1.7,0.2s0.9,0.3,1.2,0.4
		c0.3,0.2,0.6,0.3,0.9,0.4s0.5,0.2,0.8,0.2c0.3,0,0.4,0,0.5-0.1c0.1-0.1,0.2-0.3,0.4-0.6h0.4v5.9h-0.4c-0.1-0.8-0.3-1.5-0.6-2.3
		c-0.3-0.7-0.7-1.4-1.1-1.9c-0.5-0.6-1-1-1.7-1.3c-0.6-0.3-1.4-0.5-2.2-0.5c-0.5,0-1,0.1-1.6,0.2c-0.6,0.1-1.1,0.4-1.6,0.7
		c-0.5,0.3-0.9,0.8-1.2,1.4c-0.3,0.6-0.5,1.3-0.5,2.2c0,0.7,0.1,1.3,0.4,1.8c0.3,0.5,0.6,0.9,1,1.2c0.4,0.3,0.9,0.6,1.4,0.9
		c0.5,0.2,1,0.4,1.5,0.6l3.6,1.2c0.4,0.1,0.9,0.3,1.4,0.5s1.1,0.5,1.7,1c0.5,0.4,1,1,1.4,1.7s0.6,1.6,0.6,2.7c0,1-0.2,2-0.5,2.9
		c-0.3,0.9-0.8,1.7-1.5,2.5c-0.7,0.7-1.4,1.3-2.4,1.7c-0.9,0.4-2,0.6-3.2,0.6c-0.4,0-0.8,0-1.1,0c-0.3,0-0.6,0-0.9-0.1
		c-0.3,0-0.6-0.1-0.8-0.1c-0.3-0.1-0.6-0.1-0.9-0.2c-0.4-0.1-0.8-0.3-1.3-0.5c-0.5-0.2-0.9-0.3-1.2-0.3c-0.3,0-0.5,0.1-0.6,0.2
		c-0.1,0.1-0.2,0.3-0.3,0.5h-0.4V130.5z"/>
	<path d="M565.9,137.1h3.3v-22.4h-1.7c-0.4,0-0.8,0-1.3,0.1c-0.5,0.1-1,0.3-1.5,0.6c-0.5,0.3-1,0.9-1.5,1.7
		c-0.5,0.8-0.9,1.8-1.2,3.1h-0.3v-6h18.1v6h-0.3c-0.3-1.3-0.7-2.4-1.2-3.1c-0.5-0.8-1-1.3-1.5-1.7c-0.5-0.3-1-0.6-1.5-0.6
		c-0.5-0.1-0.9-0.1-1.3-0.1h-1.7v22.4h3.3v0.5h-9.6V137.1z"/>
</g>
<g>
	<path d="M583,137.1h3.3v-22.4H583v-0.5h5.6c0.2,0,0.5,0,0.7,0c0.2,0,0.5,0,0.7,0c0.2,0,0.5,0,0.7,0c0.2,0,0.5,0,0.7,0
		c1.2,0,2.2,0.1,3.1,0.2c0.9,0.1,1.7,0.6,2.5,1.2c0.7,0.6,1.2,1.3,1.5,2c0.3,0.7,0.4,1.4,0.4,2.1c0,0.3-0.1,0.7-0.2,1.3
		c-0.1,0.5-0.3,1-0.7,1.6c-0.4,0.5-0.9,1-1.6,1.5c-0.7,0.4-1.6,0.7-2.8,0.9v0.1c0.3,0,0.7,0.1,1.3,0.2c0.5,0.1,1.1,0.3,1.7,0.6
		c0.6,0.3,1.1,0.7,1.6,1.1s0.8,1.1,1,1.8c0.1,0.4,0.2,0.9,0.3,1.5c0,0.6,0.1,1.1,0.1,1.7c0,0.6,0.1,1.2,0.1,1.7c0,0.5,0.1,1,0.2,1.4
		c0.1,0.6,0.3,1.1,0.6,1.5c0.3,0.5,0.7,0.7,1.2,0.7c0.3,0,0.5-0.1,0.8-0.2c0.3-0.1,0.5-0.3,0.7-0.5l0.3,0.4
		c-0.1,0.1-0.2,0.2-0.3,0.3c-0.1,0.1-0.3,0.2-0.5,0.3s-0.4,0.2-0.7,0.2c-0.3,0.1-0.6,0.1-1.1,0.1c-0.8,0-1.5-0.1-2-0.3
		c-0.5-0.2-0.9-0.5-1.3-1c-0.3-0.4-0.5-0.9-0.7-1.6c-0.1-0.6-0.3-1.3-0.3-2.2l-0.2-3c-0.1-1.1-0.3-1.9-0.6-2.6
		c-0.3-0.6-0.7-1.1-1.1-1.3c-0.4-0.3-0.9-0.5-1.3-0.5s-0.9-0.1-1.2-0.1h-3v11.8h3.3v0.5H583V137.1z M589.3,124.8h2.7
		c0.6,0,1.1-0.1,1.5-0.2s0.8-0.4,1.2-0.8c0.3-0.4,0.6-0.9,0.8-1.6c0.2-0.7,0.3-1.5,0.3-2.5c0-1.1-0.1-2-0.4-2.7
		c-0.3-0.7-0.6-1.2-1-1.6c-0.4-0.3-0.9-0.6-1.4-0.7s-1-0.2-1.6-0.2c-0.4,0-0.7,0-1.1,0c-0.4,0-0.7,0-0.9,0.1V124.8z"/>
	<path d="M608.8,137.1h3.3v-9.4l-6.7-13h-2.7v-0.5h9.1v0.5h-3l5.9,11.5l5.6-11.5h-3v-0.5h6.4v0.5h-2.9l-5.8,11.9v10.4h3.3v0.5h-9.6
		V137.1z"/>
</g>
<g>
	<g>
		<path class="st1" d="M333.3,137.1h3.3v-22.4h-3.3v-0.5h5.5c0.3,0,0.6,0,0.8,0c0.3,0,0.6,0,0.8,0c0.3,0,0.6,0,0.8,0
			c0.3,0,0.6,0,0.8,0c0.6,0,1.1,0,1.6,0s0.9,0.1,1.3,0.1c0.4,0.1,0.8,0.1,1.2,0.2c0.4,0.1,0.8,0.2,1.2,0.4c1.2,0.4,2.3,1,3.1,1.8
			c0.9,0.7,1.6,1.6,2.2,2.5c0.6,1,1,2,1.2,3.1c0.3,1.1,0.4,2.3,0.4,3.6c0,1.4-0.2,2.7-0.5,3.9c-0.3,1.1-0.8,2.2-1.3,3
			c-0.6,0.9-1.2,1.6-1.9,2.3c-0.7,0.6-1.5,1.2-2.4,1.6c-0.5,0.2-0.9,0.4-1.4,0.6c-0.4,0.1-0.9,0.2-1.3,0.3c-0.4,0.1-0.9,0.1-1.5,0.1
			c-0.5,0-1.1,0-1.8,0c-0.3,0-0.6,0-1,0c-0.3,0-0.7,0-1,0c-0.3,0-0.7,0-1,0c-0.3,0-0.6,0-0.9,0h-5.1V137.1z M339.6,137.1
			c0.3,0,0.7,0.1,1.2,0.1c0.4,0,0.9,0,1.5,0c0.7,0,1.3,0,2-0.1s1.3-0.2,1.9-0.5c0.6-0.2,1.2-0.6,1.7-1.1c0.5-0.5,1-1.1,1.4-1.8
			c0.6-1.2,1.1-2.4,1.3-3.6c0.2-1.2,0.4-2.6,0.4-4c0-1.7-0.1-3.3-0.4-4.7c-0.3-1.4-0.8-2.6-1.5-3.6c-0.7-1-1.6-1.8-2.7-2.3
			s-2.5-0.8-4.2-0.8c-0.5,0-0.9,0-1.4,0c-0.4,0-0.8,0-1.2,0.1V137.1z"/>
		<path class="st1" d="M357.1,137.1h3.3v-22.4h-3.3v-0.5h17v5.7h-0.3c-0.3-0.9-0.5-1.6-0.8-2.2c-0.3-0.6-0.7-1.2-1.1-1.6
			c-0.4-0.4-0.9-0.8-1.5-1c-0.6-0.2-1.3-0.3-2.1-0.3h-4.9v10.1h1.9c0.7,0,1.2-0.1,1.7-0.2s0.8-0.4,1.2-0.7c0.3-0.4,0.6-0.8,0.8-1.5
			c0.2-0.6,0.5-1.4,0.7-2.4h0.3v10.2h-0.3c-0.1-0.6-0.3-1.2-0.4-1.8c-0.1-0.6-0.4-1.1-0.6-1.6c-0.3-0.5-0.6-0.8-1.1-1.1
			c-0.4-0.3-1-0.4-1.7-0.4h-2.4v11.8h5.6c1.1,0,2-0.3,2.7-0.8c0.7-0.5,1.3-1.1,1.8-1.8c0.5-0.7,0.8-1.4,1-2.2
			c0.2-0.8,0.4-1.4,0.4-1.9h0.3v7.2h-18.1V137.1z"/>
	</g>
	<g>
		<path class="st1" d="M380.1,130.5h0.3c0.2,1.2,0.5,2.2,0.8,3c0.3,0.8,0.7,1.5,1.1,2s0.9,0.9,1.3,1.2c0.5,0.3,0.9,0.5,1.4,0.6
			s0.9,0.2,1.3,0.2c0.4,0,0.8,0,1.2,0c1.1,0,1.9-0.2,2.6-0.5c0.7-0.3,1.2-0.8,1.6-1.3s0.7-1.1,0.8-1.7c0.2-0.6,0.2-1.2,0.2-1.7
			c0-0.8-0.1-1.4-0.4-2c-0.3-0.5-0.6-1-1-1.4s-0.8-0.7-1.3-0.9c-0.5-0.2-0.9-0.4-1.3-0.6l-3.4-1.1c-1.6-0.5-2.8-1.3-3.6-2.2
			c-0.8-0.9-1.2-2.1-1.2-3.6c0-1,0.2-1.9,0.5-2.7c0.3-0.8,0.8-1.6,1.3-2.2s1.3-1.1,2.1-1.4s1.7-0.5,2.6-0.5c0.7,0,1.3,0.1,1.7,0.2
			s0.9,0.3,1.2,0.4c0.3,0.2,0.6,0.3,0.9,0.4s0.5,0.2,0.8,0.2c0.3,0,0.4,0,0.5-0.1c0.1-0.1,0.2-0.3,0.4-0.6h0.4v5.9h-0.4
			c-0.1-0.8-0.3-1.5-0.6-2.3c-0.3-0.7-0.7-1.4-1.1-1.9c-0.5-0.6-1-1-1.7-1.3c-0.6-0.3-1.4-0.5-2.2-0.5c-0.5,0-1,0.1-1.6,0.2
			c-0.6,0.1-1.1,0.4-1.6,0.7c-0.5,0.3-0.9,0.8-1.2,1.4c-0.3,0.6-0.5,1.3-0.5,2.2c0,0.7,0.1,1.3,0.4,1.8c0.3,0.5,0.6,0.9,1,1.2
			c0.4,0.3,0.9,0.6,1.4,0.9c0.5,0.2,1,0.4,1.5,0.6l3.6,1.2c0.4,0.1,0.9,0.3,1.4,0.5s1.1,0.5,1.7,1c0.5,0.4,1,1,1.4,1.7
			s0.6,1.6,0.6,2.7c0,1-0.2,2-0.5,2.9c-0.3,0.9-0.8,1.7-1.5,2.5c-0.7,0.7-1.4,1.3-2.4,1.7c-0.9,0.4-2,0.6-3.2,0.6
			c-0.4,0-0.8,0-1.1,0c-0.3,0-0.6,0-0.9-0.1c-0.3,0-0.6-0.1-0.8-0.1c-0.3-0.1-0.6-0.1-0.9-0.2c-0.4-0.1-0.8-0.3-1.3-0.5
			c-0.5-0.2-0.9-0.3-1.2-0.3c-0.3,0-0.5,0.1-0.6,0.2c-0.1,0.1-0.2,0.3-0.3,0.5h-0.4V130.5z"/>
		<path class="st1" d="M398.1,137.1h3.3v-22.4h-3.3v-0.5h9.6v0.5h-3.3v22.4h3.3v0.5h-9.6V137.1z"/>
	</g>
	<g>
		<path class="st1" d="M431.2,129.2h-2.4v7.4h-0.4c-0.2-0.2-0.4-0.4-0.5-0.5s-0.4-0.1-0.7-0.1c-0.4,0-0.7,0.1-1.1,0.3
			c-0.4,0.2-0.8,0.4-1.3,0.7c-0.5,0.3-1.1,0.5-1.7,0.7s-1.4,0.3-2.4,0.3c-1.4,0-2.7-0.3-3.7-0.8c-1.1-0.5-2.1-1.3-3.2-2.4
			c-1-1.1-1.8-2.4-2.5-3.9c-0.7-1.5-1-3.2-1-5c0-1.2,0.1-2.4,0.4-3.4c0.3-1,0.6-1.9,0.9-2.6c0.4-0.7,0.7-1.4,1.1-1.9s0.7-0.9,1-1.2
			c0.9-1,1.9-1.8,3.1-2.4c1.1-0.6,2.5-0.9,3.9-0.9c0.8,0,1.4,0.1,1.9,0.2c0.5,0.1,0.9,0.3,1.3,0.4c0.4,0.2,0.7,0.3,1,0.4
			c0.3,0.1,0.6,0.2,1,0.2c0.4,0,0.7-0.1,0.8-0.2c0.2-0.1,0.3-0.3,0.5-0.5h0.4v6.5h-0.3c-0.1-0.6-0.2-1.2-0.5-2s-0.6-1.5-1.1-2.2
			c-0.5-0.7-1.1-1.3-1.9-1.8s-1.8-0.7-3.1-0.7c-1.5,0-2.7,0.3-3.6,1c-0.9,0.7-1.6,1.6-2.1,2.7c-0.5,1.1-0.8,2.4-1,3.8
			c-0.2,1.4-0.3,2.8-0.3,4.3c0,1,0,2,0.1,2.9s0.2,1.9,0.4,2.8c0.2,0.9,0.5,1.7,0.8,2.4s0.8,1.4,1.3,1.9c0.6,0.6,1.2,1,1.8,1.2
			c0.6,0.2,1.5,0.3,2.5,0.3c0.6,0,1.2-0.1,1.8-0.3c0.6-0.2,1.2-0.6,1.7-1c0.5-0.5,0.9-1,1.2-1.8c0.3-0.7,0.5-1.5,0.5-2.5v-2.7h-3.8
			v-0.5h9.1V129.2z"/>
		<path class="st1" d="M432.9,137.1h3.3v-22.4h-3.3v-0.5h6.4l10.1,17.8h0.1v-17.4h-3.3v-0.5h7v0.5h-3.3V138h-0.6l-12.5-21.9h-0.1v21
			h3.3v0.5h-7V137.1z"/>
	</g>
	<g>
		<path class="st1" d="M462.9,137.1h2.6l8-23.4h0.7l8.1,23.4h2.6v0.5h-9.2v-0.5h3.3L476,128h-6.9l-3.1,9.1h3.3v0.5h-6.4V137.1z
			 M472.5,118l-3.3,9.5h6.5L472.5,118z"/>
		<path class="st1" d="M487.7,137.1h3.3v-22.4h-3.3v-0.5h5.6c0.2,0,0.5,0,0.7,0c0.2,0,0.5,0,0.7,0c0.2,0,0.5,0,0.7,0
			c0.2,0,0.5,0,0.7,0c1.2,0,2.2,0.1,3.1,0.2c0.9,0.1,1.7,0.6,2.5,1.2c0.7,0.6,1.2,1.3,1.5,2c0.3,0.7,0.4,1.4,0.4,2.1
			c0,0.3-0.1,0.7-0.2,1.3c-0.1,0.5-0.3,1-0.7,1.6c-0.4,0.5-0.9,1-1.6,1.5c-0.7,0.4-1.6,0.7-2.8,0.9v0.1c0.3,0,0.7,0.1,1.3,0.2
			c0.5,0.1,1.1,0.3,1.7,0.6c0.6,0.3,1.1,0.7,1.6,1.1s0.8,1.1,1,1.8c0.1,0.4,0.2,0.9,0.3,1.5c0,0.6,0.1,1.1,0.1,1.7
			c0,0.6,0.1,1.2,0.1,1.7c0,0.5,0.1,1,0.2,1.4c0.1,0.6,0.3,1.1,0.6,1.5c0.3,0.5,0.7,0.7,1.2,0.7c0.3,0,0.5-0.1,0.8-0.2
			c0.3-0.1,0.5-0.3,0.7-0.5l0.3,0.4c-0.1,0.1-0.2,0.2-0.3,0.3c-0.1,0.1-0.3,0.2-0.5,0.3s-0.4,0.2-0.7,0.2c-0.3,0.1-0.6,0.1-1.1,0.1
			c-0.8,0-1.5-0.1-2-0.3c-0.5-0.2-0.9-0.5-1.3-1c-0.3-0.4-0.5-0.9-0.7-1.6c-0.1-0.6-0.3-1.3-0.3-2.2l-0.2-3
			c-0.1-1.1-0.3-1.9-0.6-2.6c-0.3-0.6-0.7-1.1-1.1-1.3c-0.4-0.3-0.9-0.5-1.3-0.5s-0.9-0.1-1.2-0.1h-3v11.8h3.3v0.5h-9.6V137.1z
			 M494,124.8h2.7c0.6,0,1.1-0.1,1.5-0.2s0.8-0.4,1.2-0.8c0.3-0.4,0.6-0.9,0.8-1.6c0.2-0.7,0.3-1.5,0.3-2.5c0-1.1-0.1-2-0.4-2.7
			c-0.3-0.7-0.6-1.2-1-1.6c-0.4-0.3-0.9-0.6-1.4-0.7s-1-0.2-1.6-0.2c-0.4,0-0.7,0-1.1,0c-0.4,0-0.7,0-0.9,0.1V124.8z"/>
	</g>
	<g>
		<path class="st1" d="M513.1,137.1h3.3v-22.4h-1.7c-0.4,0-0.8,0-1.3,0.1c-0.5,0.1-1,0.3-1.5,0.6c-0.5,0.3-1,0.9-1.5,1.7
			c-0.5,0.8-0.9,1.8-1.2,3.1h-0.3v-6h18.1v6h-0.3c-0.3-1.3-0.7-2.4-1.2-3.1c-0.5-0.8-1-1.3-1.5-1.7c-0.5-0.3-1-0.6-1.5-0.6
			c-0.5-0.1-0.9-0.1-1.3-0.1h-1.7v22.4h3.3v0.5h-9.6V137.1z"/>
		<path class="st1" d="M530.2,137.1h3.3v-22.4h-3.3v-0.5h9.6v0.5h-3.3v22.4h3.3v0.5h-9.6V137.1z"/>
	</g>
	<g>
		<path class="st1" d="M543.6,130.5h0.3c0.2,1.2,0.5,2.2,0.8,3c0.3,0.8,0.7,1.5,1.1,2s0.9,0.9,1.3,1.2c0.5,0.3,0.9,0.5,1.4,0.6
			s0.9,0.2,1.3,0.2c0.4,0,0.8,0,1.2,0c1.1,0,1.9-0.2,2.6-0.5c0.7-0.3,1.2-0.8,1.6-1.3s0.7-1.1,0.8-1.7c0.2-0.6,0.2-1.2,0.2-1.7
			c0-0.8-0.1-1.4-0.4-2c-0.3-0.5-0.6-1-1-1.4s-0.8-0.7-1.3-0.9c-0.5-0.2-0.9-0.4-1.3-0.6l-3.4-1.1c-1.6-0.5-2.8-1.3-3.6-2.2
			c-0.8-0.9-1.2-2.1-1.2-3.6c0-1,0.2-1.9,0.5-2.7c0.3-0.8,0.8-1.6,1.3-2.2s1.3-1.1,2.1-1.4s1.7-0.5,2.6-0.5c0.7,0,1.3,0.1,1.7,0.2
			s0.9,0.3,1.2,0.4c0.3,0.2,0.6,0.3,0.9,0.4s0.5,0.2,0.8,0.2c0.3,0,0.4,0,0.5-0.1c0.1-0.1,0.2-0.3,0.4-0.6h0.4v5.9h-0.4
			c-0.1-0.8-0.3-1.5-0.6-2.3c-0.3-0.7-0.7-1.4-1.1-1.9c-0.5-0.6-1-1-1.7-1.3c-0.6-0.3-1.4-0.5-2.2-0.5c-0.5,0-1,0.1-1.6,0.2
			c-0.6,0.1-1.1,0.4-1.6,0.7c-0.5,0.3-0.9,0.8-1.2,1.4c-0.3,0.6-0.5,1.3-0.5,2.2c0,0.7,0.1,1.3,0.4,1.8c0.3,0.5,0.6,0.9,1,1.2
			c0.4,0.3,0.9,0.6,1.4,0.9c0.5,0.2,1,0.4,1.5,0.6l3.6,1.2c0.4,0.1,0.9,0.3,1.4,0.5s1.1,0.5,1.7,1c0.5,0.4,1,1,1.4,1.7
			s0.6,1.6,0.6,2.7c0,1-0.2,2-0.5,2.9c-0.3,0.9-0.8,1.7-1.5,2.5c-0.7,0.7-1.4,1.3-2.4,1.7c-0.9,0.4-2,0.6-3.2,0.6
			c-0.4,0-0.8,0-1.1,0c-0.3,0-0.6,0-0.9-0.1c-0.3,0-0.6-0.1-0.8-0.1c-0.3-0.1-0.6-0.1-0.9-0.2c-0.4-0.1-0.8-0.3-1.3-0.5
			c-0.5-0.2-0.9-0.3-1.2-0.3c-0.3,0-0.5,0.1-0.6,0.2c-0.1,0.1-0.2,0.3-0.3,0.5h-0.4V130.5z"/>
		<path class="st1" d="M565.9,137.1h3.3v-22.4h-1.7c-0.4,0-0.8,0-1.3,0.1c-0.5,0.1-1,0.3-1.5,0.6c-0.5,0.3-1,0.9-1.5,1.7
			c-0.5,0.8-0.9,1.8-1.2,3.1h-0.3v-6h18.1v6h-0.3c-0.3-1.3-0.7-2.4-1.2-3.1c-0.5-0.8-1-1.3-1.5-1.7c-0.5-0.3-1-0.6-1.5-0.6
			c-0.5-0.1-0.9-0.1-1.3-0.1h-1.7v22.4h3.3v0.5h-9.6V137.1z"/>
	</g>
	<g>
		<path class="st1" d="M583,137.1h3.3v-22.4H583v-0.5h5.6c0.2,0,0.5,0,0.7,0c0.2,0,0.5,0,0.7,0c0.2,0,0.5,0,0.7,0c0.2,0,0.5,0,0.7,0
			c1.2,0,2.2,0.1,3.1,0.2c0.9,0.1,1.7,0.6,2.5,1.2c0.7,0.6,1.2,1.3,1.5,2c0.3,0.7,0.4,1.4,0.4,2.1c0,0.3-0.1,0.7-0.2,1.3
			c-0.1,0.5-0.3,1-0.7,1.6c-0.4,0.5-0.9,1-1.6,1.5c-0.7,0.4-1.6,0.7-2.8,0.9v0.1c0.3,0,0.7,0.1,1.3,0.2c0.5,0.1,1.1,0.3,1.7,0.6
			c0.6,0.3,1.1,0.7,1.6,1.1s0.8,1.1,1,1.8c0.1,0.4,0.2,0.9,0.3,1.5c0,0.6,0.1,1.1,0.1,1.7c0,0.6,0.1,1.2,0.1,1.7
			c0,0.5,0.1,1,0.2,1.4c0.1,0.6,0.3,1.1,0.6,1.5c0.3,0.5,0.7,0.7,1.2,0.7c0.3,0,0.5-0.1,0.8-0.2c0.3-0.1,0.5-0.3,0.7-0.5l0.3,0.4
			c-0.1,0.1-0.2,0.2-0.3,0.3c-0.1,0.1-0.3,0.2-0.5,0.3s-0.4,0.2-0.7,0.2c-0.3,0.1-0.6,0.1-1.1,0.1c-0.8,0-1.5-0.1-2-0.3
			c-0.5-0.2-0.9-0.5-1.3-1c-0.3-0.4-0.5-0.9-0.7-1.6c-0.1-0.6-0.3-1.3-0.3-2.2l-0.2-3c-0.1-1.1-0.3-1.9-0.6-2.6
			c-0.3-0.6-0.7-1.1-1.1-1.3c-0.4-0.3-0.9-0.5-1.3-0.5s-0.9-0.1-1.2-0.1h-3v11.8h3.3v0.5H583V137.1z M589.3,124.8h2.7
			c0.6,0,1.1-0.1,1.5-0.2s0.8-0.4,1.2-0.8c0.3-0.4,0.6-0.9,0.8-1.6c0.2-0.7,0.3-1.5,0.3-2.5c0-1.1-0.1-2-0.4-2.7
			c-0.3-0.7-0.6-1.2-1-1.6c-0.4-0.3-0.9-0.6-1.4-0.7s-1-0.2-1.6-0.2c-0.4,0-0.7,0-1.1,0c-0.4,0-0.7,0-0.9,0.1V124.8z"/>
		<path class="st1" d="M608.8,137.1h3.3v-9.4l-6.7-13h-2.7v-0.5h9.1v0.5h-3l5.9,11.5l5.6-11.5h-3v-0.5h6.4v0.5h-2.9l-5.8,11.9v10.4
			h3.3v0.5h-9.6V137.1z"/>
	</g>
</g>
</svg>
